<svg width="72" height="67" viewBox="0 0 72 67" fill="none" xmlns="http://www.w3.org/2000/svg">
<path d="M36.4851 1.67026L71.1619 65.8809H48.3457L36.922 45.4212L36.4834 44.6357L36.0479 45.423L24.7325 65.8809H1.75539L36.4851 1.67026Z" stroke="white"/>
<path d="M30.5664 19.1763H31.8154C32.0869 19.1763 32.3041 19.2302 32.467 19.3921C32.63 19.5539 32.6843 19.7157 32.6843 19.9855C32.6843 20.1473 32.63 20.2552 32.5756 20.3631C32.5213 20.471 32.4127 20.5789 32.3041 20.6329C32.4127 20.6329 32.5213 20.6868 32.6299 20.7408C32.7386 20.7947 32.7929 20.8486 32.8472 20.9026C32.9015 20.9565 32.9558 21.0644 32.9558 21.1184C32.9558 21.2263 33.0101 21.2802 33.0101 21.3881C33.0101 21.55 33.0101 21.6579 32.9558 21.7658C32.9015 21.8737 32.8472 21.9815 32.7386 22.0355C32.63 22.0894 32.5213 22.1973 32.4127 22.1973C32.3041 22.1973 32.1412 22.2513 31.9783 22.2513H30.675V19.1763H30.5664ZM31.381 20.4171H31.5439C31.8154 20.4171 31.924 20.3092 31.924 20.0934C31.924 19.8776 31.8154 19.7697 31.5439 19.7697H31.381V20.4171ZM31.381 21.7118H31.5439C31.7611 21.7118 31.924 21.7118 31.9783 21.6579C32.0326 21.6039 32.0869 21.496 32.0869 21.3881C32.0869 21.2802 32.0869 21.1723 32.0326 21.1184C31.9783 21.0644 31.8154 21.0644 31.5982 21.0644H31.4353V21.7118H31.381Z" fill="white"/>
<path d="M33.1729 20.2014H33.9331V20.579C33.9874 20.4711 34.096 20.3633 34.2046 20.2554C34.3132 20.2014 34.4761 20.1475 34.6391 20.1475H34.6934C34.6934 20.1475 34.7477 20.1475 34.802 20.1475V20.9027C34.6934 20.8488 34.5848 20.8488 34.4761 20.8488C34.3132 20.8488 34.1503 20.9027 34.096 21.0106C33.9874 21.1185 33.9874 21.2804 33.9874 21.4962V22.4133H33.2272V20.2014H33.1729Z" fill="white"/>
<path d="M34.8018 19.3386C34.8018 19.2846 34.8018 19.2307 34.8561 19.1767C34.8561 19.1228 34.9104 19.0688 34.9647 19.0149C35.019 18.9609 35.0733 18.9609 35.1276 18.907C35.1819 18.853 35.2362 18.853 35.2905 18.853C35.3448 18.853 35.3991 18.853 35.4534 18.907C35.5077 18.907 35.562 18.9609 35.6163 19.0149C35.6706 19.0688 35.6706 19.1228 35.7249 19.1767C35.7249 19.2307 35.7792 19.2846 35.7792 19.3386C35.7792 19.3925 35.7792 19.4465 35.7249 19.5004C35.7249 19.5543 35.6706 19.6083 35.6163 19.6622C35.562 19.7162 35.5077 19.7162 35.4534 19.7701C35.3991 19.7701 35.3448 19.8241 35.2905 19.8241C35.2362 19.8241 35.1819 19.8241 35.1276 19.7701C35.0733 19.7162 35.019 19.7162 34.9647 19.6622C34.9104 19.6083 34.9104 19.5543 34.8561 19.5004C34.8018 19.4465 34.8018 19.3925 34.8018 19.3386ZM35.6163 20.2017V22.3596H34.8561V20.2017H35.6163Z" fill="white"/>
<path d="M36.7569 20.7952V22.3058H35.9966V20.7952H35.7251V20.1479H35.9966V19.5005H36.7569V20.1479H37.1913V20.7952H36.7569Z" fill="white"/>
<path d="M37.1916 19.3383C37.1916 19.2844 37.1916 19.2304 37.2459 19.1765C37.3002 19.1225 37.3002 19.0686 37.3545 19.0146C37.4088 18.9607 37.4088 18.9607 37.4631 18.9607C37.5174 18.9607 37.5717 18.9067 37.626 18.9067C37.6804 18.9067 37.7347 18.9067 37.789 18.9607C37.8433 18.9607 37.8976 19.0146 37.9519 19.0686C38.0062 19.1225 38.0062 19.1765 38.0605 19.2304C38.1148 19.2844 38.1148 19.3383 38.1148 19.3923C38.1148 19.4462 38.1148 19.5002 38.0605 19.5541C38.0062 19.6081 38.0062 19.662 37.9519 19.716C37.8976 19.7699 37.8433 19.7699 37.789 19.8238C37.7347 19.8238 37.6804 19.8778 37.626 19.8778C37.5717 19.8778 37.5174 19.8778 37.4631 19.8238C37.4088 19.8238 37.3545 19.7699 37.3002 19.716C37.2459 19.662 37.2459 19.6081 37.1916 19.5541C37.1373 19.5002 37.1916 19.3923 37.1916 19.3383ZM38.0062 20.2015V22.3594H37.2459V20.2015H38.0062Z" fill="white"/>
<path d="M39.7438 20.7411C39.5808 20.6872 39.4722 20.6332 39.3093 20.6332C39.255 20.6332 39.2007 20.6332 39.1464 20.6872C39.0921 20.7411 39.0921 20.7411 39.0921 20.7951V20.849C39.0921 20.849 39.0921 20.903 39.1464 20.903C39.2007 20.903 39.2007 20.903 39.255 20.9569C39.3093 21.0109 39.3636 20.9569 39.4179 21.0109C39.6351 21.0648 39.7981 21.1188 39.9067 21.2267C40.0153 21.3345 40.0696 21.4964 40.0696 21.6582C40.0696 21.7661 40.0696 21.874 40.0153 21.9819C39.961 22.0898 39.9067 22.1438 39.7981 22.2517C39.6895 22.3596 39.5808 22.3596 39.4722 22.4135C39.3636 22.4675 39.2007 22.4674 39.0378 22.4674C38.7663 22.4674 38.4405 22.3596 38.1689 22.1977L38.4405 21.6582C38.6577 21.8201 38.8749 21.874 39.0378 21.874C39.0921 21.874 39.1464 21.874 39.2007 21.8201C39.255 21.7661 39.255 21.7661 39.255 21.7122C39.255 21.6582 39.255 21.6582 39.255 21.6582C39.255 21.6582 39.255 21.6043 39.2007 21.6043C39.1464 21.6043 39.1464 21.5503 39.0921 21.5503C39.0378 21.5503 38.9835 21.5503 38.9292 21.4964C38.712 21.4424 38.5491 21.3885 38.4405 21.2806C38.3319 21.1727 38.2776 21.0648 38.2776 20.903C38.2776 20.7951 38.2776 20.6872 38.3319 20.5793C38.3862 20.4714 38.4405 20.4174 38.5491 20.3095C38.6577 20.2556 38.712 20.2016 38.8749 20.1477C38.9835 20.0938 39.1464 20.0938 39.255 20.0938C39.4722 20.0938 39.7438 20.1477 39.961 20.2556L39.7438 20.7411Z" fill="white"/>
<path d="M40.1782 18.853H40.9385V20.4715C41.0471 20.3636 41.1557 20.2557 41.2643 20.2017C41.3729 20.1478 41.4815 20.1478 41.6444 20.1478C41.9159 20.1478 42.1332 20.2017 42.2418 20.3636C42.4047 20.5254 42.459 20.7412 42.459 20.957V22.3057H41.6987V21.2267C41.6987 21.1188 41.6987 21.0109 41.6987 20.957C41.6987 20.903 41.6444 20.8491 41.5901 20.7951C41.5358 20.7412 41.4272 20.6872 41.3729 20.6872C41.2643 20.6872 41.1557 20.7412 41.1014 20.7951C41.0471 20.8491 40.9928 20.957 40.9928 21.1188V22.2517H40.1782V18.853Z" fill="white"/>
<path d="M27.8512 27.3765H26.8194L26.0592 26.1897V27.4305H25.2446V24.2476H26.5479C26.7108 24.2476 26.8737 24.2476 27.0367 24.3015C27.1996 24.3555 27.2539 24.4094 27.3625 24.5173C27.4711 24.6252 27.5254 24.7331 27.5797 24.841C27.634 24.9489 27.634 25.1107 27.634 25.2186C27.634 25.4344 27.5797 25.6502 27.4711 25.812C27.3625 25.9739 27.1996 26.0818 26.9824 26.1357L27.8512 27.3765ZM26.0592 25.6502H26.2221C26.385 25.6502 26.4936 25.5963 26.6022 25.5423C26.7108 25.4884 26.7108 25.3805 26.7108 25.2726C26.7108 25.1647 26.6565 25.0568 26.6022 25.0028C26.5479 24.9489 26.385 24.8949 26.2221 24.8949H26.0592V25.6502Z" fill="white"/>
<path d="M28.5028 26.4595C28.5028 26.7832 28.6657 26.9451 28.9916 26.9451C29.1545 26.9451 29.2631 26.8911 29.3717 26.7293H30.1319C29.969 27.2148 29.5889 27.4845 29.0459 27.4845C28.883 27.4845 28.72 27.4306 28.5571 27.3766C28.3942 27.3227 28.2856 27.2687 28.177 27.1609C28.0684 27.053 27.9598 26.9451 27.9055 26.7832C27.8512 26.6214 27.7969 26.4595 27.7969 26.2977C27.7969 26.1358 27.8512 25.974 27.9055 25.8122C27.9598 25.6503 28.0141 25.5424 28.1227 25.4345C28.2313 25.3266 28.3399 25.2727 28.5028 25.2187C28.6657 25.1648 28.8286 25.1108 28.9916 25.1108C29.1545 25.1108 29.3174 25.1648 29.4803 25.2187C29.6432 25.2727 29.7518 25.3266 29.8604 25.4345C29.969 25.5424 30.0233 25.6503 30.0776 25.8122C30.1319 25.974 30.1319 26.1358 30.1319 26.2977V26.3516H28.5028V26.4595ZM29.426 26.0279C29.426 25.9201 29.3717 25.8122 29.2631 25.7582C29.1545 25.7043 29.1002 25.6503 28.9916 25.6503C28.883 25.6503 28.7743 25.7043 28.72 25.7582C28.6657 25.8122 28.6114 25.9201 28.5571 26.0279H29.426Z" fill="white"/>
<path d="M30.2949 25.2185H31.0552V25.4882C31.1638 25.3803 31.2724 25.2724 31.381 25.2185C31.4896 25.1645 31.5982 25.1646 31.7611 25.1646C31.924 25.1646 32.0326 25.1645 32.1413 25.2185C32.2499 25.2724 32.3585 25.3264 32.4128 25.4343C32.4671 25.4882 32.5214 25.5961 32.5214 25.704C32.5214 25.8119 32.5757 25.9198 32.5757 26.0277V27.3764H31.8154V26.2975C31.8154 26.1896 31.8154 26.0817 31.8154 26.0277C31.8154 25.9738 31.7611 25.9198 31.7068 25.8659C31.6525 25.8119 31.6525 25.8119 31.5982 25.8119C31.5439 25.8119 31.4896 25.8119 31.4896 25.8119C31.381 25.8119 31.2724 25.8659 31.2181 25.9198C31.1638 25.9738 31.1095 26.0817 31.1095 26.2435V27.3764H30.3492V25.2185H30.2949Z" fill="white"/>
<path d="M33.5531 26.4595C33.5531 26.7832 33.716 26.9451 34.0418 26.9451C34.2048 26.9451 34.3134 26.8911 34.422 26.7293H35.1822C35.0193 27.2148 34.6392 27.4845 34.0962 27.4845C33.9332 27.4845 33.7703 27.4306 33.6074 27.3766C33.4445 27.3227 33.3359 27.2687 33.2273 27.1609C33.1187 27.053 33.0101 26.9451 32.9558 26.7832C32.9015 26.6214 32.8472 26.4595 32.8472 26.2977C32.8472 26.1358 32.9015 25.974 32.9558 25.8122C33.0101 25.6503 33.0644 25.5424 33.173 25.4345C33.2816 25.3266 33.3902 25.2727 33.5531 25.2187C33.716 25.1648 33.8789 25.1108 34.0418 25.1108C34.2048 25.1108 34.3677 25.1648 34.5306 25.2187C34.6935 25.2727 34.8021 25.3266 34.9107 25.4345C35.0193 25.5424 35.0736 25.6503 35.1279 25.8122C35.1822 25.974 35.1822 26.1358 35.1822 26.2977V26.3516H33.5531V26.4595ZM34.422 26.0279C34.422 25.9201 34.3677 25.8122 34.2591 25.7582C34.1505 25.7043 34.0962 25.6503 33.9875 25.6503C33.8789 25.6503 33.7703 25.7043 33.716 25.7582C33.6617 25.8122 33.6074 25.9201 33.5531 26.0279H34.422Z" fill="white"/>
<path d="M35.7793 25.2188L36.3223 26.3517L36.8654 25.2188H37.3541L37.8971 26.4056L38.4402 25.2188H39.309L38.1687 27.3767H37.6799L37.1369 26.1898L36.6482 27.3767H36.1051L35.019 25.2188H35.7793Z" fill="white"/>
<path d="M40.8295 25.2187H41.5898V27.3766H40.8295V27.1609C40.6666 27.3766 40.4494 27.4845 40.1779 27.4845C40.015 27.4845 39.852 27.4306 39.7434 27.3766C39.6348 27.3227 39.4719 27.2148 39.4176 27.1609C39.3633 27.1069 39.2547 26.9451 39.2004 26.7832C39.1461 26.6214 39.0918 26.4595 39.0918 26.2977C39.0918 26.1358 39.0918 25.974 39.1461 25.8661C39.2004 25.7043 39.2547 25.5964 39.3633 25.4885C39.4719 25.3806 39.5805 25.3266 39.6891 25.2187C39.7977 25.1648 39.9607 25.1108 40.1236 25.1108C40.3951 25.1108 40.6123 25.2187 40.7752 25.3806V25.2187H40.8295ZM39.8521 26.2977C39.8521 26.3516 39.852 26.4595 39.9064 26.5135C39.9064 26.5674 39.9607 26.6214 40.015 26.6753C40.0693 26.7293 40.1236 26.7293 40.1779 26.7832C40.2322 26.7832 40.2865 26.8372 40.3951 26.8372C40.4494 26.8372 40.5037 26.8372 40.6123 26.7832C40.6666 26.7832 40.7209 26.7293 40.7752 26.6753C40.8295 26.6214 40.8295 26.5674 40.8838 26.5135C40.9381 26.4595 40.9381 26.4056 40.9381 26.2977C40.9381 26.1898 40.9381 26.1898 40.8838 26.0819C40.8295 25.974 40.7752 26.0279 40.7209 25.974C40.6666 25.9201 40.6123 25.9201 40.558 25.8661C40.5037 25.8661 40.4494 25.8122 40.3408 25.8122C40.2865 25.8122 40.2322 25.8122 40.1236 25.8661C40.0693 25.8661 40.015 25.9201 39.9607 25.974C39.9064 26.0279 39.9064 26.0819 39.8521 26.1358C39.9064 26.1898 39.8521 26.2437 39.8521 26.2977Z" fill="white"/>
<path d="M42.6217 23.9238V25.4344C42.7846 25.2725 43.0018 25.1646 43.2733 25.1646C43.4362 25.1646 43.5992 25.2186 43.7078 25.2725C43.8164 25.3265 43.9793 25.4344 44.0336 25.5423C44.0879 25.6502 44.1965 25.7581 44.2508 25.9199C44.3051 26.0817 44.3051 26.1896 44.3051 26.3515C44.3051 26.5133 44.3051 26.6752 44.1965 26.7831C44.0879 26.891 44.0879 27.0528 43.9793 27.1607C43.8707 27.2686 43.7621 27.3225 43.6535 27.4304C43.5449 27.4844 43.3819 27.5383 43.219 27.5383C42.9475 27.5383 42.7303 27.4304 42.5674 27.2146V27.4304H41.8071V23.9238H42.6217ZM43.5992 26.3515C43.5992 26.2975 43.5992 26.2436 43.5448 26.1357C43.5448 26.0817 43.4905 26.0278 43.4362 25.9738C43.3819 25.9199 43.3276 25.9199 43.2733 25.8659C43.219 25.812 43.1647 25.812 43.0561 25.812C43.0018 25.812 42.9475 25.812 42.8932 25.8659C42.8389 25.9199 42.7846 25.9199 42.7303 25.9738C42.676 26.0278 42.676 26.0817 42.6217 26.1357C42.5674 26.1896 42.5674 26.2436 42.5674 26.3515C42.5674 26.4594 42.5674 26.4594 42.6217 26.5673C42.6217 26.6212 42.676 26.6752 42.7303 26.7291C42.7846 26.7831 42.8389 26.7831 42.8932 26.837C42.9475 26.8909 43.0018 26.891 43.1104 26.891C43.1647 26.891 43.219 26.8909 43.2733 26.837C43.3276 26.7831 43.3819 26.7831 43.4362 26.7291C43.4905 26.6752 43.4905 26.6212 43.5448 26.5673C43.5992 26.5133 43.5992 26.4054 43.5992 26.3515Z" fill="white"/>
<path d="M45.3369 23.9238V27.4304H44.5767V23.9238H45.3369Z" fill="white"/>
<path d="M46.2601 26.4595C46.2601 26.7832 46.4231 26.9451 46.7489 26.9451C46.9118 26.9451 47.0204 26.8911 47.129 26.7293H47.8893C47.7263 27.2148 47.3462 27.4845 46.8032 27.4845C46.6403 27.4845 46.4774 27.4306 46.3145 27.3766C46.1515 27.3227 46.0429 27.2687 45.9343 27.1609C45.8257 27.053 45.7171 26.9451 45.6628 26.7832C45.6085 26.6214 45.5542 26.4595 45.5542 26.2977C45.5542 26.1358 45.6085 25.974 45.6628 25.8122C45.7171 25.6503 45.7714 25.5424 45.88 25.4345C45.9886 25.3266 46.0972 25.2727 46.2601 25.2187C46.4231 25.1648 46.586 25.1108 46.7489 25.1108C46.9118 25.1108 47.0747 25.1648 47.2376 25.2187C47.4005 25.2727 47.5091 25.3266 47.6177 25.4345C47.7263 25.5424 47.7807 25.6503 47.835 25.8122C47.8893 25.974 47.8893 26.1358 47.8893 26.2977V26.3516H46.2601V26.4595ZM47.1833 26.0279C47.1833 25.9201 47.129 25.8122 47.0204 25.7582C46.9118 25.7043 46.8575 25.6503 46.7489 25.6503C46.6403 25.6503 46.5317 25.7043 46.4774 25.7582C46.4231 25.8122 46.3688 25.9201 46.3145 26.0279H47.1833Z" fill="white"/>
<path d="M22.8008 29.966H21.8233V30.5054H22.7465V31.2068H21.8233V31.7462H22.8008V32.4476H21.0088V29.2646H22.8008V29.966Z" fill="white"/>
<path d="M23.0723 30.2898H23.8325V30.5595C23.9411 30.4516 24.0497 30.3437 24.1583 30.2898C24.2669 30.2358 24.3756 30.2358 24.5385 30.2358C24.7014 30.2358 24.81 30.2358 24.9186 30.2898C25.0272 30.3437 25.1358 30.3977 25.1901 30.5056C25.2444 30.5595 25.2987 30.6674 25.2987 30.7753C25.2987 30.8832 25.353 30.9911 25.353 31.099V32.4477H24.5928V31.3687C24.5928 31.2608 24.5928 31.1529 24.5928 31.099C24.5928 31.0451 24.5385 30.9911 24.4842 30.9372C24.4299 30.8832 24.4299 30.8832 24.3756 30.8832C24.3213 30.8832 24.2669 30.8832 24.2669 30.8832C24.1583 30.8832 24.0497 30.9372 23.9954 30.9911C23.9411 31.0451 23.8868 31.153 23.8868 31.3148V32.4477H23.1266V30.2898H23.0723Z" fill="white"/>
<path d="M26.2764 31.5303C26.2764 31.854 26.4393 32.0159 26.7651 32.0159C26.928 32.0159 27.0366 31.9619 27.1452 31.8001H27.9055C27.7426 32.2856 27.3624 32.5553 26.8194 32.5553C26.6565 32.5553 26.4936 32.5014 26.3307 32.4474C26.1678 32.3935 26.0592 32.3395 25.9505 32.2317C25.8419 32.1238 25.7333 32.0159 25.679 31.854C25.6247 31.6922 25.5161 31.5843 25.5161 31.3685C25.5161 31.2066 25.5704 31.0448 25.6247 30.883C25.679 30.7211 25.7333 30.6132 25.8419 30.5053C25.9505 30.3974 26.0592 30.3435 26.2221 30.2895C26.385 30.2356 26.5479 30.1816 26.7108 30.1816C26.8737 30.1816 27.0366 30.2356 27.1995 30.2895C27.3624 30.3435 27.471 30.3974 27.5797 30.5053C27.6883 30.6132 27.7426 30.7211 27.7969 30.883C27.8512 31.0448 27.8512 31.2066 27.8512 31.3685V31.4224H26.2764V31.5303ZM27.1452 31.0448C27.1452 30.9369 27.0909 30.829 26.9823 30.7751C26.8737 30.7211 26.8194 30.6672 26.7108 30.6672C26.6022 30.6672 26.4936 30.7211 26.4393 30.7751C26.385 30.829 26.3307 30.9369 26.2764 31.0448H27.1452Z" fill="white"/>
<path d="M28.0684 30.2898H28.8286V30.6674C28.8829 30.5595 28.9915 30.4516 29.1001 30.3437C29.2087 30.2898 29.3717 30.2358 29.5346 30.2358H29.5889C29.5889 30.2358 29.6432 30.2358 29.6975 30.2358V30.9911C29.5889 30.9372 29.4803 30.9372 29.3716 30.9372C29.2087 30.9372 29.0458 30.9911 28.9915 31.099C28.8829 31.2069 28.8829 31.3687 28.8829 31.5845V32.4477H28.1227V30.2898H28.0684Z" fill="white"/>
<path d="M32.1957 30.2898V32.2858C32.1957 32.3937 32.1957 32.5016 32.1957 32.6095C32.1957 32.7174 32.1414 32.7714 32.1414 32.8793C32.0871 32.9872 32.0328 33.0411 31.9785 33.149C31.9242 33.203 31.8156 33.3109 31.707 33.3648C31.5984 33.4188 31.4898 33.4727 31.3812 33.5266C31.2183 33.5266 31.1097 33.5266 30.9467 33.5266C30.7838 33.5266 30.6209 33.5266 30.458 33.4727C30.2951 33.4188 30.1865 33.3648 30.0779 33.3109C29.9693 33.2569 29.8607 33.149 29.8064 33.0411C29.7521 32.9332 29.6978 32.8253 29.6978 32.7174H30.5666C30.6209 32.8793 30.7295 32.9332 30.9467 32.9332C31.1097 32.9332 31.2183 32.8793 31.3269 32.8253C31.4355 32.7714 31.4355 32.6095 31.4355 32.4477V32.2319C31.3812 32.2859 31.3269 32.3398 31.2726 32.3398C31.2183 32.3937 31.164 32.3937 31.1097 32.4477C31.0553 32.4477 31.001 32.5016 30.9467 32.5016C30.8924 32.5016 30.8381 32.5016 30.7295 32.5016C30.5666 32.5016 30.458 32.5016 30.2951 32.4477C30.1865 32.3937 30.0779 32.3398 29.9693 32.2319C29.8607 32.124 29.8064 32.0161 29.7521 31.9082C29.6978 31.8003 29.6978 31.6385 29.6978 31.4766C29.6978 31.3148 29.7521 31.153 29.8064 30.9911C29.8607 30.8293 29.915 30.7214 30.0236 30.6135C30.1322 30.5056 30.2408 30.4516 30.3494 30.3437C30.458 30.2898 30.6209 30.2358 30.7838 30.2358C31.0553 30.2358 31.2726 30.3437 31.4355 30.5056V30.2898H32.1957ZM30.5123 31.3687C30.5123 31.4227 30.5123 31.5306 30.5666 31.5845C30.6209 31.6385 30.6209 31.6924 30.6752 31.7464C30.7295 31.8003 30.7838 31.8003 30.8381 31.8543C30.8924 31.9082 30.9467 31.9082 31.0553 31.9082C31.1097 31.9082 31.164 31.9082 31.2726 31.8543C31.3812 31.8003 31.3812 31.8003 31.4355 31.7464C31.4898 31.6924 31.4898 31.6385 31.5441 31.5845C31.5441 31.5306 31.5984 31.4766 31.5984 31.3687C31.5984 31.3148 31.5984 31.2608 31.5441 31.1529C31.5441 31.099 31.4898 31.0451 31.4355 30.9911C31.3812 30.9372 31.3269 30.9372 31.2726 30.8832C31.2183 30.8832 31.164 30.8293 31.1097 30.8293C31.0553 30.8293 31.001 30.8293 30.9467 30.8832C30.8924 30.9372 30.8381 30.9372 30.7838 30.9911C30.7295 31.0451 30.7295 31.099 30.6752 31.1529C30.5123 31.2608 30.5123 31.3148 30.5123 31.3687Z" fill="white"/>
<path d="M33.2813 32.1777L32.2495 30.2896H33.1184L33.7157 31.4225L34.2588 30.2896H35.1276L33.3899 33.5264H32.5753L33.2813 32.1777Z" fill="white"/>
<path d="M38.3314 31.9081H37.1368L36.9738 32.4476H36.105L37.2997 29.2646H38.2228L39.4175 32.4476H38.5487L38.3314 31.9081ZM38.1142 31.2607L37.7341 30.1818L37.354 31.2607H38.1142Z" fill="white"/>
<path d="M39.9064 30.2896L40.4494 31.4225L40.9924 30.2896H41.4812L42.0242 31.4764L42.5672 30.2896H43.4361L42.2957 32.4475H41.807L41.2639 31.2606L40.7209 32.4475H40.1779L39.0918 30.2896H39.9064Z" fill="white"/>
<path d="M44.957 30.2895H45.7172V32.4474H44.957V32.2317C44.7941 32.4474 44.5768 32.5553 44.3053 32.5553C44.1424 32.5553 43.9795 32.5014 43.8709 32.4474C43.7623 32.3935 43.5994 32.2856 43.5451 32.2317C43.4908 32.1777 43.3822 32.0159 43.3278 31.854C43.2735 31.6922 43.2192 31.5843 43.2192 31.3685C43.2192 31.2066 43.2192 31.0448 43.2735 30.9369C43.3278 30.7751 43.3821 30.6672 43.4908 30.5593C43.5994 30.4514 43.708 30.3974 43.8166 30.2895C43.9252 30.2356 44.0881 30.1816 44.251 30.1816C44.5225 30.1816 44.7397 30.2895 44.9027 30.4514V30.2895H44.957ZM43.9795 31.3685C43.9795 31.4224 43.9795 31.5303 44.0338 31.5843C44.0338 31.6382 44.0881 31.6922 44.1424 31.7461C44.1967 31.8001 44.251 31.8001 44.3053 31.854C44.3596 31.854 44.4139 31.908 44.5225 31.908C44.5768 31.908 44.6311 31.908 44.7397 31.854C44.794 31.854 44.8484 31.8001 44.9027 31.7461C44.957 31.6922 44.957 31.6382 45.0113 31.5843C45.0656 31.5303 45.0656 31.4764 45.0656 31.3685C45.0656 31.2606 45.0656 31.2606 45.0113 31.1527C44.957 31.0448 44.957 31.0448 44.9027 30.9909C44.8484 30.9369 44.794 30.9369 44.7397 30.883C44.6854 30.883 44.6311 30.829 44.5225 30.829C44.4682 30.829 44.4139 30.829 44.3053 30.883C44.251 30.883 44.1967 30.9369 44.1424 30.9909C44.0881 31.0448 44.0881 31.0987 44.0338 31.1527C44.0338 31.2606 43.9795 31.3145 43.9795 31.3685Z" fill="white"/>
<path d="M45.9888 30.2898H46.749V30.6674C46.8033 30.5595 46.9119 30.4516 47.0205 30.3437C47.1291 30.2898 47.2921 30.2358 47.455 30.2358H47.5093C47.5093 30.2358 47.5636 30.2358 47.6179 30.2358V30.9911C47.5093 30.9372 47.4007 30.9372 47.2921 30.9372C47.1291 30.9372 46.9662 30.9911 46.9119 31.099C46.8576 31.2069 46.8033 31.3687 46.8033 31.5845V32.4477H46.0431V30.2898H45.9888Z" fill="white"/>
<path d="M49.4096 28.9409H50.1698V32.4475H49.4096V32.2317C49.2467 32.4475 49.0295 32.5554 48.758 32.5554C48.595 32.5554 48.4321 32.5015 48.3235 32.4475C48.2149 32.3936 48.052 32.2857 47.9977 32.1778C47.9434 32.0699 47.8348 31.962 47.7805 31.8001C47.7262 31.6383 47.6719 31.5304 47.6719 31.3686C47.6719 31.2067 47.6719 31.0449 47.7262 30.937C47.7805 30.7751 47.8348 30.6672 47.9434 30.5593C48.052 30.4515 48.1606 30.3975 48.2692 30.2896C48.3778 30.2357 48.5407 30.1817 48.7036 30.1817C48.9752 30.1817 49.1924 30.2896 49.3553 30.4515V28.9409H49.4096ZM48.4321 31.3686C48.4321 31.4225 48.4321 31.5304 48.4864 31.5844C48.4864 31.6383 48.5407 31.6922 48.595 31.7462C48.6493 31.8001 48.7036 31.8001 48.758 31.8541C48.8123 31.8541 48.8666 31.908 48.9752 31.908C49.0295 31.908 49.0838 31.908 49.1924 31.8541C49.2467 31.8541 49.301 31.8001 49.3553 31.7462C49.4096 31.6922 49.4096 31.6383 49.4639 31.5844C49.5182 31.5304 49.4096 31.4225 49.4096 31.3686C49.4096 31.3146 49.4096 31.2607 49.3553 31.1528C49.301 31.0449 49.301 31.0449 49.2467 30.9909C49.1924 30.937 49.1381 30.937 49.0838 30.883C49.0295 30.883 48.9752 30.8291 48.8666 30.8291C48.8123 30.8291 48.7579 30.8291 48.6493 30.883C48.595 30.883 48.5407 30.937 48.4864 30.9909C48.4321 31.0449 48.4321 31.0988 48.3778 31.1528C48.3235 31.2067 48.4321 31.3146 48.4321 31.3686Z" fill="white"/>
<path d="M51.8531 30.829C51.6902 30.7751 51.5816 30.7211 51.4187 30.7211C51.3644 30.7211 51.3101 30.7211 51.2558 30.7751C51.2015 30.829 51.2015 30.829 51.2015 30.883V30.9369C51.2015 30.9369 51.2015 30.9909 51.2558 30.9909C51.3101 30.9909 51.3101 30.9909 51.3644 31.0448C51.4187 31.0988 51.473 31.0448 51.5273 31.0987C51.7445 31.1527 51.9074 31.2066 52.016 31.3145C52.1247 31.4224 52.179 31.5843 52.179 31.7461C52.179 31.854 52.179 31.9619 52.1246 32.0698C52.0703 32.1777 52.016 32.2317 51.9074 32.3395C51.7988 32.4474 51.6902 32.4474 51.5816 32.5014C51.473 32.5553 51.3101 32.5553 51.1472 32.5553C50.8757 32.5553 50.5498 32.4474 50.2783 32.2856L50.5498 31.7461C50.7671 31.908 50.9843 31.9619 51.1472 31.9619C51.2015 31.9619 51.2558 31.9619 51.3101 31.908C51.3644 31.854 51.3644 31.854 51.3644 31.8001C51.3644 31.7461 51.3644 31.7461 51.3644 31.7461C51.3644 31.7461 51.3644 31.6922 51.3101 31.6922C51.2558 31.6922 51.2558 31.6382 51.2015 31.6382C51.1472 31.6382 51.0929 31.6382 51.0386 31.5843C50.8214 31.5303 50.6584 31.4764 50.5498 31.3685C50.4412 31.2606 50.3869 31.1527 50.3869 30.9909C50.3869 30.883 50.3869 30.7751 50.4412 30.6672C50.4955 30.5593 50.5498 30.5053 50.6584 30.3974C50.7671 30.3435 50.8214 30.2895 50.9843 30.2356C51.0929 30.1816 51.2558 30.1816 51.3644 30.1816C51.5816 30.1816 51.8531 30.2356 52.0703 30.3435L51.8531 30.829Z" fill="white"/>
<path d="M33.8247 37.5191H31.2725L32.0327 36.7099C32.2499 36.4941 32.4128 36.3322 32.5214 36.1704C32.6301 36.0085 32.7387 35.9006 32.793 35.7927C32.8473 35.6849 32.9016 35.6309 32.9016 35.523C32.9016 35.4151 32.9016 35.4151 32.9016 35.3612C32.9016 35.3072 32.9016 35.2533 32.9016 35.1993C32.9016 35.1454 32.8473 35.0914 32.8473 35.0914C32.8473 35.0914 32.793 35.0375 32.7387 34.9835C32.6844 34.9296 32.6301 34.9296 32.5758 34.9296C32.4671 34.9296 32.3585 34.9835 32.3042 35.0375C32.2499 35.0914 32.1956 35.1993 32.1956 35.3072C32.1956 35.3612 32.1956 35.3612 32.1956 35.4151H31.2725C31.2725 35.2533 31.3268 35.0375 31.3811 34.9296C31.4354 34.7677 31.544 34.6598 31.6526 34.552C31.7612 34.4441 31.8698 34.3362 32.0327 34.2822C32.1956 34.2283 32.3585 34.1743 32.5214 34.1743C32.6844 34.1743 32.8473 34.2283 33.0102 34.2822C33.1731 34.3362 33.2817 34.3901 33.3903 34.498C33.4989 34.6059 33.6075 34.7138 33.6618 34.8756C33.7161 35.0375 33.7704 35.1454 33.7704 35.3072C33.7704 35.4691 33.7161 35.6309 33.6618 35.7927C33.6075 35.9546 33.4446 36.1164 33.2817 36.2243L32.7387 36.7099H33.7704V37.5191H33.8247Z" fill="white"/>
<path d="M33.8242 35.9004C33.8242 35.6307 33.8785 35.4149 33.9328 35.1991C33.9871 34.9833 34.0957 34.8214 34.2043 34.6596C34.313 34.4978 34.4759 34.3899 34.6388 34.3359C34.8017 34.282 34.9646 34.228 35.1818 34.228C35.399 34.228 35.5619 34.282 35.7249 34.3359C35.8878 34.3899 36.0507 34.5517 36.1593 34.6596C36.2679 34.8214 36.3765 34.9833 36.4308 35.1991C36.4851 35.4149 36.5394 35.6307 36.5394 35.9004C36.5394 36.1701 36.4851 36.3859 36.4308 36.6017C36.3765 36.8175 36.2679 36.9794 36.1593 37.1412C36.0507 37.303 35.8878 37.4109 35.7249 37.4649C35.5619 37.5188 35.399 37.5728 35.1818 37.5728C34.9646 37.5728 34.8017 37.5188 34.6388 37.4649C34.4759 37.4109 34.313 37.2491 34.2043 37.1412C34.0957 36.9794 33.9871 36.8175 33.9328 36.6017C33.8785 36.3859 33.8242 36.1701 33.8242 35.9004ZM34.6388 35.9004C34.6388 36.0622 34.6388 36.1701 34.6931 36.278C34.7474 36.3859 34.7474 36.4938 34.8017 36.6017C34.856 36.7096 34.9103 36.7636 34.9646 36.8175C35.0189 36.8715 35.1275 36.8715 35.1818 36.8715C35.2361 36.8715 35.3447 36.8715 35.399 36.8175C35.4533 36.7636 35.5076 36.7096 35.5619 36.6017C35.6162 36.4938 35.6162 36.4399 35.6705 36.278C35.7248 36.1162 35.7249 36.0083 35.7249 35.9004C35.7249 35.7386 35.7248 35.6307 35.6705 35.5228C35.6162 35.4149 35.6162 35.307 35.5619 35.1991C35.5076 35.0912 35.4533 35.0372 35.399 34.9833C35.3447 34.9293 35.2361 34.9293 35.1818 34.9293C35.1275 34.9293 35.0189 34.9293 34.9646 34.9833C34.9103 35.0372 34.856 35.0912 34.8017 35.1991C34.7474 35.307 34.6931 35.3609 34.6931 35.5228C34.6931 35.6846 34.6388 35.7925 34.6388 35.9004Z" fill="white"/>
<path d="M39.0376 37.5191H36.4854L37.2456 36.7099C37.4628 36.4941 37.6257 36.3322 37.7343 36.1704C37.8429 36.0085 37.9516 35.9006 38.0059 35.7927C38.0602 35.6849 38.1145 35.6309 38.1145 35.523C38.1145 35.4691 38.1145 35.4151 38.1145 35.3612C38.1145 35.3072 38.1145 35.2533 38.1145 35.1993C38.1145 35.1454 38.0602 35.0914 38.0602 35.0914C38.0602 35.0914 38.0059 35.0375 37.9516 34.9835C37.8973 34.9296 37.8429 34.9296 37.7886 34.9296C37.68 34.9296 37.5714 34.9835 37.5171 35.0375C37.4628 35.0914 37.4085 35.1993 37.4085 35.3072C37.4085 35.3612 37.4085 35.3612 37.4085 35.4151H36.4854C36.4854 35.2533 36.5397 35.0375 36.594 34.9296C36.6483 34.7677 36.7569 34.6598 36.8655 34.552C36.9741 34.4441 37.0827 34.3362 37.2456 34.2822C37.4085 34.2283 37.5714 34.1743 37.7343 34.1743C37.8973 34.1743 38.0602 34.2283 38.2231 34.2822C38.386 34.3362 38.4946 34.3901 38.6032 34.498C38.7118 34.6059 38.8204 34.7138 38.8747 34.8756C38.929 35.0375 38.9833 35.1454 38.9833 35.3072C38.9833 35.4691 38.929 35.6309 38.8747 35.7927C38.8204 35.9546 38.6575 36.1164 38.4946 36.2243L37.9516 36.7099H38.9833V37.5191H39.0376Z" fill="white"/>
<path d="M41.6441 37.5191H39.0918L39.8521 36.7099C40.0693 36.4941 40.2322 36.3322 40.3408 36.1704C40.4494 36.0085 40.558 35.9006 40.6123 35.7927C40.6666 35.6849 40.7209 35.6309 40.7209 35.523C40.7209 35.4691 40.7209 35.4151 40.7209 35.3612C40.7209 35.3072 40.7209 35.2533 40.7209 35.1993C40.7209 35.1454 40.6666 35.0914 40.6666 35.0914C40.6666 35.0914 40.6123 35.0375 40.558 34.9835C40.5037 34.9296 40.4494 34.9296 40.3951 34.9296C40.2865 34.9296 40.1779 34.9835 40.1236 35.0375C40.0693 35.0914 40.015 35.1993 40.015 35.3072C40.015 35.3612 40.015 35.3612 40.015 35.4151H39.0918C39.0918 35.2533 39.1461 35.0375 39.2004 34.9296C39.2547 34.8217 39.3633 34.6598 39.4719 34.552C39.5805 34.4441 39.6891 34.3362 39.8521 34.2822C40.015 34.2283 40.1779 34.1743 40.3408 34.1743C40.5037 34.1743 40.6666 34.2283 40.8295 34.2822C40.9924 34.3362 41.101 34.3901 41.2096 34.498C41.3183 34.6059 41.4269 34.7138 41.4812 34.8756C41.5355 35.0375 41.5898 35.1454 41.5898 35.3072C41.5898 35.4691 41.5355 35.6309 41.4812 35.7927C41.4269 35.9546 41.2639 36.1164 41.101 36.2243L40.558 36.7099H41.5898V37.5191H41.6441Z" fill="white"/>
<path d="M29.6431 40.1085H28.6656V40.648H29.5888V41.3493H28.6656V42.5901H27.8511V39.4072H29.6431V40.1085Z" fill="white"/>
<path d="M30.7292 39.4072V42.5901H29.8604V39.4072H30.7292Z" fill="white"/>
<path d="M31.1094 42.5901V39.4072H31.9239L33.4444 41.3493V39.4072H34.259V42.5901H33.4444L31.9239 40.648V42.5901H31.1094Z" fill="white"/>
<path d="M36.6483 41.9965H35.4536L35.2907 42.5359H34.4219L35.6166 39.353H36.5397L37.7344 42.5359H36.8655L36.6483 41.9965ZM36.4311 41.403L36.051 40.3241L35.6709 41.403H36.4311Z" fill="white"/>
<path d="M38.6578 39.4072V41.8888H39.6353V42.5901H37.8433V39.4072H38.6578Z" fill="white"/>
<path d="M40.6124 39.4072V42.5901H39.7979V39.4072H40.6124Z" fill="white"/>
<path d="M42.7845 40.2162C42.6759 40.1622 42.6216 40.1083 42.513 40.0543C42.4044 40.0004 42.3501 40.0004 42.2415 40.0004C42.1329 40.0004 42.0243 40.0004 41.97 40.0543C41.9157 40.1083 41.8614 40.1622 41.8614 40.2701C41.8614 40.3241 41.8614 40.378 41.9157 40.432C41.97 40.4859 41.97 40.4859 42.0243 40.5399C42.0786 40.5938 42.1329 40.5938 42.1872 40.5938C42.2415 40.5938 42.3501 40.6478 42.4044 40.6478C42.6759 40.7557 42.8931 40.8635 43.0017 41.0254C43.1103 41.1872 43.1647 41.3491 43.1647 41.6188C43.1647 41.7807 43.1647 41.9425 43.056 42.0504C42.9474 42.1583 42.9474 42.3201 42.8388 42.3741C42.7302 42.428 42.6216 42.5359 42.4587 42.5899C42.2958 42.6438 42.1329 42.6438 41.9157 42.6438C41.5355 42.6438 41.1554 42.5359 40.8296 42.2662L41.264 41.6188C41.3726 41.7267 41.5355 41.8346 41.6441 41.8886C41.7528 41.9425 41.8614 41.9425 42.0243 41.9425C42.1329 41.9425 42.2415 41.8886 42.3501 41.8346C42.4044 41.7807 42.4587 41.7267 42.4587 41.6188C42.4587 41.5649 42.4587 41.5109 42.4587 41.5109C42.4587 41.5109 42.4044 41.457 42.3501 41.403C42.2958 41.3491 42.2415 41.3491 42.1872 41.2951C42.1329 41.2951 42.0243 41.2412 41.97 41.1872C41.8614 41.1333 41.7528 41.1333 41.6441 41.0793C41.5355 41.0254 41.4269 40.9714 41.3726 40.9175C41.3183 40.8635 41.2097 40.7557 41.1554 40.6478C41.1011 40.5399 41.1011 40.432 41.1011 40.2701C41.1011 40.1083 41.1011 39.9464 41.1554 39.8385C41.2097 39.7306 41.264 39.6228 41.3726 39.5149C41.4812 39.407 41.5898 39.353 41.6985 39.2991C41.8071 39.2451 41.97 39.2451 42.1329 39.2451C42.2958 39.2451 42.4587 39.2451 42.6216 39.2991C42.7845 39.353 42.9474 39.407 43.1104 39.5149L42.7845 40.2162Z" fill="white"/>
<path d="M44.7396 40.1085V42.5901H43.9251V40.1085H43.2734V39.4072H45.4456V40.1085H44.7396Z" fill="white"/>
</svg>
