<svg width="33" height="51" viewBox="0 0 33 51" fill="none" xmlns="http://www.w3.org/2000/svg">
<path d="M31.5391 35.6992C32.2227 35.1133 32.125 34.2344 31.5391 33.5508C30.9531 32.8672 29.9766 32.8672 29.3906 33.5508L17.9648 44.8789V1.8125C17.9648 0.933594 17.2812 0.25 16.4023 0.25C15.5234 0.25 14.8398 0.933594 14.8398 1.8125V44.8789L3.41406 33.5508C2.82812 32.8672 1.94922 32.9648 1.26562 33.5508C0.582031 34.1367 0.582031 35.1133 1.26562 35.6992L15.3281 49.7617C15.6211 50.0547 16.0117 50.25 16.4023 50.25C16.793 50.25 17.1836 50.0547 17.4766 49.7617L31.5391 35.6992Z" fill="white"/>
</svg>
