<svg width="16" height="17" viewBox="0 0 16 17" fill="none" xmlns="http://www.w3.org/2000/svg">
<path d="M14.625 0.375C15.2227 0.375 15.75 0.902344 15.75 1.53516V15C15.75 15.6328 15.2227 16.125 14.625 16.125H1.08984C0.492188 16.125 0 15.6328 0 15V1.53516C0 0.902344 0.492188 0.375 1.08984 0.375H14.625ZM4.74609 13.875V6.38672H2.42578V13.875H4.74609ZM3.58594 5.33203C4.32422 5.33203 4.92188 4.73438 4.92188 3.99609C4.92188 3.25781 4.32422 2.625 3.58594 2.625C2.8125 2.625 2.21484 3.25781 2.21484 3.99609C2.21484 4.73438 2.8125 5.33203 3.58594 5.33203ZM13.5 13.875V9.76172C13.5 7.75781 13.043 6.17578 10.6875 6.17578C9.5625 6.17578 8.78906 6.80859 8.47266 7.40625H8.4375V6.38672H6.22266V13.875H8.54297V10.1836C8.54297 9.19922 8.71875 8.25 9.94922 8.25C11.1445 8.25 11.1445 9.375 11.1445 10.2188V13.875H13.5Z" fill="white"/>
</svg>
