<svg width="148" height="60" viewBox="0 0 148 60" fill="none" xmlns="http://www.w3.org/2000/svg">
<g clip-path="url(#clip0_1284_16513)">
<path d="M12.3854 31.1177C11.1932 31.1177 10.0211 31.0135 8.87261 30.8085C7.72407 30.6 6.61584 30.2975 5.5479 29.8975C4.47996 29.4975 3.47583 29.0268 2.53551 28.489C1.59183 27.9511 0.748899 27.3494 0 26.6872L6.02814 20.1322C6.71995 20.8818 7.64012 21.5474 8.79201 22.129C9.94055 22.7105 11.126 23.003 12.3451 23.003C12.8992 23.003 13.4063 22.9055 13.863 22.7105C14.3198 22.5155 14.5481 22.1559 14.5481 21.6281C14.5481 21.3491 14.4709 21.1138 14.3198 20.9188C14.1653 20.7239 13.8966 20.5222 13.5104 20.3137C13.1209 20.1053 12.5902 19.8767 11.9119 19.6246C11.2335 19.3759 10.3805 19.0834 9.35621 18.7506C8.35879 18.4178 7.40168 18.0212 6.48822 17.564C5.57477 17.1068 4.76206 16.5421 4.05682 15.8765C3.35158 15.2109 2.78738 14.4109 2.37431 13.4797C1.95789 12.5486 1.74967 11.4326 1.74967 10.1249C1.74967 8.2929 2.12244 6.73651 2.87134 5.45913C3.62024 4.18175 4.58071 3.13295 5.75947 2.31273C6.93823 1.49252 8.25804 0.904252 9.72898 0.541207C11.1966 0.178161 12.6507 0 14.0914 0C16.0325 0 18.0038 0.37313 20.0154 1.12275C22.0237 1.87237 23.7902 2.95479 25.3148 4.36663L19.1624 10.6493C18.4975 9.81568 17.6814 9.18707 16.7109 8.75679C15.7403 8.32652 14.8672 8.11138 14.0914 8.11138C13.3694 8.11138 12.7884 8.21559 12.3451 8.424C11.9018 8.63242 11.6801 8.97193 11.6801 9.44255C11.6801 9.88627 11.9085 10.2191 12.3652 10.4409C12.822 10.6628 13.5641 10.9418 14.5884 11.2746C15.6396 11.6074 16.7512 11.9973 17.9131 12.4377C19.0751 12.8814 20.1498 13.4562 21.1337 14.1655C22.1177 14.8714 22.9271 15.7387 23.5651 16.7673C24.2032 17.7926 24.5223 19.07 24.5223 20.5961C24.5223 22.371 24.1696 23.9173 23.461 25.235C22.7558 26.5527 21.8255 27.6486 20.677 28.5226C19.5251 29.3966 18.2322 30.0487 16.7915 30.479C15.3508 30.9093 13.8832 31.1244 12.3854 31.1244V31.1177Z" fill="white"/>
<path d="M31.1718 29.4168L22.3193 8.40381H32.9584L36.1992 19.9271H36.3671L39.2351 8.40381H49.5014L40.5246 31.6186C39.9974 32.9766 39.403 34.1901 38.738 35.2591C38.0731 36.3281 37.2973 37.2357 36.4107 37.9853C35.5241 38.7349 34.4797 39.303 33.2741 39.6896C32.0685 40.0762 30.6613 40.2711 29.0561 40.2711C28.559 40.2711 28.0452 40.251 27.518 40.2073C26.9907 40.1636 26.487 40.1098 26 40.0392C25.5164 39.9686 25.0631 39.898 24.65 39.8308C24.2336 39.7602 23.8877 39.6829 23.6123 39.6022L24.8179 31.6589C25.1772 31.7967 25.6138 31.9144 26.1276 32.0119C26.6415 32.1093 27.1049 32.1564 27.5213 32.1564C28.5725 32.1564 29.355 31.9413 29.8688 31.511C30.3826 31.0807 30.7621 30.5361 31.0106 29.8706L31.1785 29.4134L31.1718 29.4168Z" fill="white"/>
<path d="M49.7061 23.5879L57.8936 15.5168H49.9143V8.40381H69.8222V14.6428L60.9698 23.171H70.0707V30.284H49.7061V23.5879Z" fill="white"/>
<path d="M79.1752 29.4168L70.3228 8.40381H80.9618L84.2026 19.9271H84.3705L87.2385 8.40381H97.5048L88.5281 31.6186C88.0008 32.9766 87.4064 34.1901 86.7415 35.2591C86.0765 36.3281 85.3007 37.2357 84.4142 37.9853C83.5276 38.7349 82.4831 39.303 81.2775 39.6896C80.0719 40.0762 78.6648 40.2711 77.0595 40.2711C76.5625 40.2711 76.0486 40.251 75.5214 40.2073C74.9941 40.1636 74.4904 40.1098 74.0034 40.0392C73.5199 39.9686 73.0665 39.898 72.6534 39.8308C72.237 39.7602 71.8911 39.6829 71.6157 39.6022L72.8213 31.6589C73.1807 31.7967 73.6172 31.9144 74.1311 32.0119C74.6449 32.1093 75.1083 32.1564 75.5248 32.1564C76.5759 32.1564 77.3584 31.9413 77.8722 31.511C78.386 31.0807 78.7655 30.5361 79.014 29.8706L79.1819 29.4134L79.1752 29.4168Z" fill="white"/>
<path d="M95.1738 19.2615C95.1738 17.8463 95.3888 16.4613 95.8186 15.0999C96.2485 13.7419 96.8798 12.5216 97.7093 11.4392C98.5388 10.3568 99.5799 9.48281 100.826 8.81722C102.072 8.15164 103.512 7.81885 105.148 7.81885C106.313 7.81885 107.455 8.04071 108.577 8.48443C109.698 8.92815 110.619 9.63407 111.341 10.6056H111.465V8.40039H120.485V28.0385C120.485 30.4218 120.096 32.4051 119.32 33.9884C118.544 35.5683 117.513 36.8222 116.224 37.7533C114.934 38.6811 113.473 39.3332 111.838 39.7097C110.202 40.0828 108.54 40.2711 106.851 40.2711C104.772 40.2711 102.693 40.0022 100.618 39.461C98.5388 38.9197 96.7254 38.1231 95.1738 37.0675L99.3717 30.7008C100.423 31.5042 101.534 32.0958 102.696 32.469C103.862 32.8421 104.967 33.0303 106.021 33.0303C106.713 33.0303 107.371 32.9396 107.996 32.7614C108.62 32.5799 109.168 32.3177 109.638 31.9715C110.108 31.6252 110.484 31.1949 110.76 30.6806C111.035 30.1663 111.176 29.578 111.176 28.9125V27.9544H111.052C110.525 28.5662 109.742 29.1041 108.704 29.578C107.667 30.0487 106.481 30.284 105.151 30.284C103.462 30.284 101.991 29.9848 100.745 29.3898C99.4993 28.7948 98.4582 27.988 97.6287 26.9762C96.7992 25.9644 96.1813 24.7912 95.7783 23.4601C95.3753 22.1289 95.1772 20.7305 95.1772 19.2581L95.1738 19.2615ZM104.067 19.2615C104.067 20.317 104.372 21.1944 104.98 21.9037C105.588 22.6096 106.478 22.9659 107.64 22.9659C108.802 22.9659 109.682 22.6062 110.363 21.8835C111.042 21.1641 111.381 20.2901 111.381 19.2615C111.381 18.29 111.042 17.4463 110.363 16.7235C109.685 16.0042 108.778 15.6411 107.64 15.6411C106.501 15.6411 105.588 16.0008 104.98 16.7235C104.369 17.4463 104.067 18.29 104.067 19.2615Z" fill="white"/>
<path d="M129.67 29.4168L120.818 8.40381H131.457L134.698 19.9271H134.866L137.734 8.40381H148L139.023 31.6186C138.496 32.9766 137.902 34.1901 137.237 35.2591C136.572 36.3281 135.796 37.2357 134.909 37.9853C134.023 38.7349 132.978 39.303 131.773 39.6896C130.567 40.0762 129.16 40.2711 127.555 40.2711C127.058 40.2711 126.544 40.251 126.017 40.2073C125.489 40.1636 124.986 40.1098 124.499 40.0392C124.015 39.9686 123.562 39.898 123.149 39.8308C122.732 39.7602 122.386 39.6829 122.111 39.6022L123.316 31.6589C123.676 31.7967 124.112 31.9144 124.626 32.0119C125.14 32.1093 125.603 32.1564 126.02 32.1564C127.071 32.1564 127.853 31.9413 128.367 31.511C128.881 31.0807 129.261 30.5361 129.509 29.8706L129.677 29.4134L129.67 29.4168Z" fill="white"/>
<path d="M8.70486 49.5187C9.29928 49.5187 9.86347 49.5759 10.4042 49.6935C10.9448 49.8112 11.4217 50.0129 11.8348 50.2986C12.2479 50.5843 12.577 50.9642 12.8255 51.4382C13.074 51.9121 13.1949 52.5105 13.1949 53.2298C13.1949 53.8887 13.0774 54.4568 12.8389 54.9375C12.6005 55.4182 12.2848 55.8115 11.8919 56.1208C11.4956 56.43 11.0422 56.6552 10.5251 56.8065C10.0079 56.9544 9.47391 57.0284 8.91307 57.0284H5.90404V49.5187H8.7015M8.33209 54.8535H8.79889C9.39331 54.8535 9.84668 54.7257 10.1657 54.4669C10.4848 54.2081 10.6426 53.7879 10.6426 53.203C10.6426 52.7155 10.4848 52.339 10.1657 52.0668C9.84668 51.7945 9.42353 51.66 8.89292 51.66H8.33209V54.8535ZM8.7015 49.0918H5.90404C5.66896 49.0918 5.47754 49.2834 5.47754 49.5187V57.0284C5.47754 57.2637 5.66896 57.4553 5.90404 57.4553H8.91307C9.50749 57.4553 10.0885 57.3746 10.6426 57.2166C11.2068 57.0553 11.7172 56.7998 12.1538 56.4603C12.6005 56.114 12.9598 55.667 13.2218 55.1291C13.4871 54.5913 13.6214 53.9526 13.6214 53.2332C13.6214 52.4466 13.4804 51.7777 13.2016 51.2432C12.9229 50.7087 12.5434 50.2751 12.0766 49.949C11.6199 49.633 11.0859 49.4078 10.4948 49.28C9.92728 49.159 9.32279 49.0952 8.70486 49.0952L8.7015 49.0918ZM8.75523 52.0869H8.88957C9.31943 52.0869 9.64518 52.1878 9.88362 52.3928C10.1053 52.5811 10.2094 52.8466 10.2094 53.2063C10.2094 53.6534 10.1019 53.966 9.89034 54.1375C9.6519 54.3291 9.28249 54.4266 8.79218 54.4266H8.75188V52.0869H8.75523Z" fill="white"/>
<path d="M16.7883 51.2363C17.2249 51.2363 17.6245 51.3136 17.9872 51.4649C18.3465 51.6162 18.6555 51.8279 18.9141 52.1002C19.1727 52.3725 19.3708 52.6952 19.5119 53.0717C19.6529 53.4448 19.7234 53.8516 19.7234 54.2919C19.7234 54.3827 19.7234 54.4768 19.7167 54.5743C19.7134 54.6684 19.7067 54.7491 19.6999 54.813H15.9487C15.9554 54.9105 15.989 55.0012 16.0495 55.0785C16.1099 55.1558 16.1838 55.2231 16.2711 55.2802C16.3584 55.3374 16.4592 55.3811 16.5666 55.408C16.6775 55.4349 16.7883 55.4517 16.8991 55.4517C17.1241 55.4517 17.3155 55.4113 17.4667 55.3306C17.6178 55.25 17.732 55.1592 17.8126 55.0617L19.5488 55.9424C19.3003 56.3458 18.9443 56.6652 18.4742 56.8971C18.004 57.1291 17.46 57.2467 16.8387 57.2467C16.4357 57.2467 16.0428 57.1828 15.6633 57.0551C15.2804 56.9274 14.9446 56.7391 14.6524 56.487C14.3602 56.2349 14.1252 55.9223 13.9472 55.5491C13.7692 55.176 13.6819 54.739 13.6819 54.2449C13.6819 53.7843 13.7625 53.3709 13.927 52.9977C14.0882 52.628 14.3099 52.312 14.5886 52.0532C14.8674 51.7943 15.1965 51.596 15.5726 51.4548C15.9487 51.3136 16.3551 51.243 16.7849 51.243M15.9252 53.502H17.6111C17.6111 53.3036 17.5372 53.1423 17.3928 53.0145C17.2484 52.8868 17.0536 52.8229 16.8051 52.8229C16.5364 52.8229 16.3282 52.8969 16.1804 53.0448C16.0327 53.1927 15.9487 53.344 15.9252 53.502ZM16.7849 50.8161C16.3047 50.8161 15.848 50.8968 15.4215 51.0548C14.995 51.2161 14.6155 51.4447 14.2964 51.7405C13.974 52.0363 13.7188 52.4027 13.5341 52.8263C13.3494 53.2499 13.2554 53.7272 13.2554 54.2449C13.2554 54.7995 13.3595 55.3004 13.561 55.7307C13.7625 56.1576 14.0345 56.5206 14.3737 56.8097C14.7095 57.0954 15.0957 57.3139 15.5289 57.4585C15.9521 57.5997 16.392 57.6703 16.8387 57.6703C17.5238 57.6703 18.1383 57.5392 18.6656 57.277C19.2063 57.008 19.6261 56.6349 19.9149 56.1643C19.9787 56.0635 19.9955 55.9391 19.9619 55.8248C19.9283 55.7105 19.8511 55.613 19.7436 55.5592L19.1156 55.2432H19.6966C19.9149 55.2432 20.0962 55.0785 20.1197 54.8634C20.1264 54.7928 20.1332 54.702 20.1365 54.5945C20.1399 54.4903 20.1432 54.3928 20.1432 54.2953C20.1432 53.8079 20.0626 53.3473 19.9048 52.9238C19.7436 52.4969 19.5119 52.1237 19.2163 51.8111C18.9175 51.4985 18.5581 51.2497 18.145 51.0749C17.732 50.9001 17.2752 50.8127 16.7816 50.8127L16.7849 50.8161Z" fill="white"/>
<path d="M23.4311 51.2365C23.6226 51.2365 23.814 51.2533 24.0088 51.2836C24.2035 51.3172 24.3916 51.3609 24.5696 51.4147C24.7509 51.4718 24.9155 51.5357 25.0666 51.6063C25.2177 51.6769 25.3487 51.7542 25.4528 51.8382L24.2338 53.5997C24.1498 53.5055 24.039 53.4316 23.9013 53.3778C23.7636 53.3274 23.6326 53.3005 23.505 53.3005C23.3841 53.3005 23.2699 53.3207 23.1557 53.3576C23.0416 53.3946 22.9408 53.4551 22.8535 53.5392C22.7662 53.6198 22.6923 53.7207 22.6352 53.835C22.5781 53.9526 22.5513 54.0871 22.5513 54.2417C22.5513 54.3963 22.5781 54.5342 22.6352 54.6485C22.6923 54.7661 22.7628 54.8602 22.8535 54.9342C22.9408 55.0081 23.0416 55.0653 23.1557 55.1023C23.2699 55.1426 23.3841 55.1594 23.505 55.1594C23.6461 55.1594 23.7838 55.1325 23.9181 55.0787C24.0524 55.025 24.1632 54.9544 24.2472 54.8602L25.4763 56.5713C25.2446 56.7528 24.9424 56.9074 24.5696 57.0351C24.2002 57.1629 23.8073 57.2268 23.3975 57.2268C22.924 57.2268 22.4908 57.1562 22.0945 57.015C21.6982 56.8738 21.3557 56.6721 21.0669 56.4099C20.7781 56.1477 20.5497 55.8351 20.3885 55.4653C20.2273 55.0989 20.1434 54.6854 20.1434 54.2249C20.1434 53.7644 20.2273 53.361 20.3919 52.9879C20.5564 52.6181 20.7882 52.2987 21.087 52.0399C21.3826 51.7777 21.7318 51.576 22.1315 51.4348C22.5311 51.2936 22.9643 51.2231 23.4311 51.2231M23.4311 50.7961C22.9173 50.7961 22.4337 50.8768 21.9904 51.0314C21.5438 51.1894 21.1441 51.4214 20.8083 51.7172C20.4658 52.0197 20.1971 52.3861 20.0057 52.8131C19.8176 53.2366 19.7202 53.7106 19.7202 54.2215C19.7202 54.7325 19.8142 55.2166 19.999 55.6367C20.1837 56.0569 20.449 56.4233 20.7814 56.7259C21.1105 57.0251 21.5035 57.257 21.9501 57.415C22.3901 57.573 22.877 57.6503 23.3975 57.6503C23.8509 57.6503 24.2909 57.5797 24.7073 57.4385C25.1204 57.2973 25.4696 57.1192 25.7383 56.9074C25.9196 56.7662 25.9566 56.5074 25.8222 56.3225L24.5931 54.6115C24.5192 54.5073 24.4017 54.4434 24.2741 54.4333C24.264 54.4333 24.2573 54.4333 24.2472 54.4333C24.1297 54.4333 24.0155 54.4837 23.9349 54.5711C23.8946 54.6148 23.8375 54.6518 23.7636 54.6821C23.6796 54.7157 23.5957 54.7325 23.5084 54.7325C23.4345 54.7325 23.364 54.7224 23.2968 54.6989C23.233 54.6754 23.1793 54.6451 23.1289 54.6048C23.0852 54.5678 23.0516 54.5207 23.0214 54.4569C22.9946 54.3997 22.9811 54.3258 22.9811 54.235C22.9811 54.1442 22.9946 54.0703 23.0214 54.0131C23.055 53.9425 23.0953 53.8888 23.1457 53.8417C23.1893 53.8014 23.2397 53.7711 23.2968 53.7509C23.3673 53.7274 23.4345 53.714 23.5084 53.714C23.5823 53.714 23.6662 53.7308 23.7569 53.7644C23.8274 53.7913 23.8811 53.8249 23.9214 53.8686C24.002 53.9593 24.1196 54.0131 24.2405 54.0131C24.2506 54.0131 24.2573 54.0131 24.2673 54.0131C24.3983 54.0064 24.5159 53.9392 24.5931 53.8316L25.8122 52.0702C25.9398 51.8853 25.9028 51.6332 25.7282 51.4953C25.5972 51.3911 25.436 51.2936 25.2547 51.2096C25.0868 51.1323 24.9021 51.0617 24.7039 50.9978C24.5058 50.934 24.2976 50.8869 24.0826 50.8499C23.8643 50.813 23.6494 50.7961 23.4378 50.7961H23.4311Z" fill="white"/>
<path d="M28.532 51.2363C29.0626 51.2363 29.4992 51.3103 29.8451 51.4582C30.191 51.6061 30.4664 51.8111 30.6679 52.0733C30.8694 52.3355 31.0104 52.6381 31.091 52.9843C31.1716 53.3305 31.2119 53.6969 31.2119 54.0869V57.0249H28.9988V56.5778H28.9787C28.8376 56.7895 28.6361 56.9408 28.3742 57.0349C28.1122 57.1257 27.857 57.1728 27.6119 57.1728C27.3936 57.1728 27.1686 57.1425 26.9402 57.0786C26.7118 57.0148 26.5036 56.9139 26.3156 56.7727C26.1275 56.6316 25.9764 56.4467 25.8555 56.2214C25.7346 55.9962 25.6741 55.7172 25.6741 55.3844C25.6741 54.9945 25.7749 54.6785 25.9764 54.4365C26.1779 54.1911 26.4331 54.0028 26.7454 53.865C27.0577 53.7272 27.4036 53.6331 27.7898 53.5826C28.176 53.5322 28.5522 53.5087 28.9182 53.5087V53.4885C28.9182 53.3204 28.8611 53.1927 28.7436 53.112C28.6261 53.0314 28.4749 52.991 28.2835 52.991C28.0585 52.991 27.8436 53.0381 27.6421 53.1356C27.4406 53.233 27.2626 53.344 27.1081 53.4684L25.8891 52.2582C26.2282 51.9321 26.6312 51.6834 27.098 51.5052C27.5648 51.3271 28.0451 51.2397 28.5387 51.2397M28.307 55.7038C28.5387 55.7038 28.7268 55.6298 28.8679 55.4819C29.0089 55.334 29.0794 55.1424 29.0794 54.9105V54.7188H28.9417C28.5824 54.7188 28.2902 54.7592 28.0719 54.8365C27.8537 54.9138 27.7428 55.0584 27.7428 55.2701C27.7428 55.3474 27.7596 55.4147 27.7966 55.4651C27.8301 55.5189 27.8772 55.5626 27.9343 55.5962C27.9913 55.6332 28.0518 55.6567 28.119 55.6769C28.1861 55.6937 28.2466 55.7038 28.3037 55.7038M28.5354 50.8127C27.9913 50.8127 27.4574 50.9102 26.9436 51.1052C26.4264 51.3002 25.9697 51.5859 25.5935 51.9489C25.5096 52.0296 25.4625 52.1372 25.4625 52.2548C25.4625 52.3691 25.5062 52.4801 25.5902 52.5607L26.5305 53.4952C26.1779 53.66 25.8823 53.8852 25.6506 54.1676C25.3853 54.4869 25.251 54.9004 25.251 55.3878C25.251 55.7912 25.3282 56.1374 25.4827 56.4265C25.6305 56.7055 25.8252 56.9408 26.0637 57.119C26.292 57.2904 26.5506 57.4182 26.8327 57.4955C27.098 57.5694 27.3633 57.6064 27.6186 57.6064C27.9107 57.6064 28.2163 57.5526 28.522 57.445C28.5958 57.4182 28.663 57.3913 28.7302 57.3576C28.8041 57.4215 28.9014 57.4585 29.0055 57.4585H31.2187C31.4537 57.4585 31.6452 57.2669 31.6452 57.0316V54.0936C31.6452 53.6734 31.6015 53.27 31.5108 52.8935C31.4168 52.4901 31.2489 52.1271 31.0104 51.8178C30.7653 51.4985 30.4328 51.2464 30.0198 51.0716C29.6201 50.9001 29.1231 50.8161 28.5387 50.8161L28.5354 50.8127ZM28.1794 55.25C28.1794 55.25 28.1962 55.2432 28.2096 55.2365C28.307 55.2029 28.4313 55.176 28.5757 55.1626C28.569 55.1727 28.5589 55.1827 28.5522 55.1895C28.5119 55.2298 28.4481 55.2802 28.3003 55.2802C28.2902 55.2802 28.2634 55.2802 28.2231 55.2668C28.2063 55.2634 28.1895 55.2567 28.176 55.25H28.1794Z" fill="white"/>
<path d="M35.7458 51.3002C35.9373 51.3002 36.0917 51.317 36.2126 51.354L36.0212 53.4314C35.944 53.4112 35.8566 53.3944 35.7626 53.3844C35.6686 53.3743 35.5813 53.3675 35.504 53.3675C35.185 53.3675 34.9331 53.4583 34.7417 53.6432C34.5503 53.8281 34.4562 54.0533 34.4562 54.3222V57.0283H32.008V51.4481H34.3589V52.0834H34.379C34.4999 51.8582 34.6779 51.67 34.913 51.5221C35.1481 51.3742 35.4268 51.3002 35.7458 51.3002ZM35.7458 50.8733C35.3495 50.8733 34.9936 50.9708 34.688 51.1624C34.688 51.1624 34.6812 51.1657 34.6779 51.1691C34.6006 51.0817 34.4865 51.0246 34.3589 51.0246H32.008C31.773 51.0246 31.5815 51.2162 31.5815 51.4515V57.0316C31.5815 57.2669 31.773 57.4585 32.008 57.4585H34.4562C34.6913 57.4585 34.8827 57.2669 34.8827 57.0316V54.3256C34.8827 54.171 34.9298 54.0567 35.0372 53.9558C35.1481 53.8516 35.2992 53.7978 35.504 53.7978C35.5678 53.7978 35.6384 53.8012 35.7156 53.8113C35.7895 53.818 35.8533 53.8314 35.9104 53.8482C35.9473 53.8583 35.9843 53.8617 36.0212 53.8617C36.1085 53.8617 36.1925 53.8348 36.263 53.7844C36.3671 53.7138 36.4343 53.5995 36.4444 53.4718L36.6358 51.3943C36.6559 51.1926 36.525 51.0044 36.3302 50.9472C36.169 50.9002 35.9775 50.8767 35.7458 50.8767V50.8733Z" fill="white"/>
<path d="M39.2184 49.0076V51.8918H39.2386C39.3998 51.7002 39.6147 51.5556 39.8834 51.4514C40.1521 51.3506 40.4174 51.2968 40.686 51.2968C41.1025 51.2968 41.4685 51.3808 41.7842 51.5523C42.0999 51.7204 42.3652 51.9456 42.5767 52.2212C42.7883 52.4969 42.9495 52.8095 43.057 53.1557C43.1678 53.502 43.2215 53.8549 43.2215 54.2146C43.2215 54.5743 43.1678 54.9441 43.057 55.297C42.9462 55.65 42.7883 55.966 42.5767 56.245C42.3652 56.524 42.0999 56.7492 41.7842 56.9173C41.4685 57.0887 41.0991 57.1728 40.686 57.1728C40.3401 57.1728 40.0144 57.1055 39.702 56.9778C39.3931 56.8467 39.1546 56.6685 38.9934 56.4433H38.9733V57.0282H36.7703V49.011H39.2184M40.0446 55.1626C40.3401 55.1626 40.5685 55.0718 40.723 54.8936C40.8774 54.7121 40.9547 54.4903 40.9547 54.2213C40.9547 53.9726 40.8774 53.7574 40.723 53.5759C40.5685 53.391 40.3401 53.3003 40.0446 53.3003C39.7491 53.3003 39.5241 53.391 39.3494 53.5759C39.1748 53.7608 39.0908 53.9759 39.0908 54.2213C39.0908 54.4835 39.1781 54.7054 39.3494 54.8903C39.5207 55.0752 39.7524 55.1659 40.0446 55.1659M39.2184 48.5874H36.7703C36.5352 48.5874 36.3438 48.779 36.3438 49.0143V57.0316C36.3438 57.2669 36.5352 57.4585 36.7703 57.4585H38.9733C39.1177 57.4585 39.2453 57.3845 39.3226 57.277C39.3897 57.3139 39.4636 57.3476 39.5375 57.3778C39.9002 57.5291 40.2864 57.6064 40.686 57.6064C41.1696 57.6064 41.6096 57.5022 41.9857 57.3005C42.3551 57.1022 42.6708 56.8366 42.9159 56.5072C43.1577 56.1912 43.3424 55.8248 43.4633 55.4281C43.5842 55.0348 43.648 54.6281 43.648 54.2213C43.648 53.8146 43.5876 53.4179 43.4633 53.0313C43.3391 52.6381 43.1544 52.2817 42.9159 51.9657C42.6674 51.643 42.3551 51.3775 41.9857 51.1825C41.6062 50.9808 41.1696 50.8766 40.686 50.8766C40.367 50.8766 40.0479 50.9371 39.7323 51.0581C39.702 51.0682 39.6718 51.0817 39.645 51.0951V49.0143C39.645 48.779 39.4535 48.5874 39.2184 48.5874ZM40.0446 54.739C39.8196 54.739 39.7188 54.6583 39.6617 54.5978C39.5644 54.4936 39.5173 54.3726 39.5173 54.2213C39.5173 54.0802 39.561 53.9726 39.6617 53.8684C39.7188 53.8079 39.8196 53.7272 40.0446 53.7272C40.2696 53.7272 40.3536 53.7978 40.3972 53.8516C40.4879 53.9591 40.5315 54.0768 40.5315 54.2247C40.5315 54.3928 40.4912 54.5171 40.4006 54.618C40.3536 54.6718 40.2696 54.7424 40.0446 54.7424V54.739Z" fill="white"/>
<path d="M46.8552 51.2365C47.2784 51.2365 47.6847 51.3004 48.0676 51.4315C48.4538 51.5626 48.7929 51.7542 49.0851 52.0096C49.3773 52.2651 49.6124 52.5777 49.7836 52.9475C49.9583 53.3173 50.0422 53.7408 50.0422 54.2148C50.0422 54.6888 49.9549 55.1224 49.7836 55.4989C49.609 55.872 49.3773 56.1914 49.0851 56.4469C48.7929 56.7057 48.4538 56.9007 48.0676 57.0351C47.6814 57.1696 47.2784 57.2368 46.8552 57.2368C46.4321 57.2368 46.0358 57.1696 45.6529 57.0351C45.2667 56.9007 44.9309 56.7057 44.6421 56.4469C44.3533 56.188 44.1216 55.872 43.9469 55.4989C43.7723 55.1258 43.6883 54.6955 43.6883 54.2148C43.6883 53.7341 43.7757 53.3173 43.9469 52.9475C44.1216 52.5777 44.3499 52.2618 44.6421 52.0096C44.9309 51.7542 45.2701 51.5626 45.6529 51.4315C46.0391 51.3004 46.4388 51.2365 46.8552 51.2365ZM46.8653 55.1695C47.134 55.1695 47.3522 55.0787 47.5235 54.8938C47.6914 54.709 47.7787 54.4871 47.7787 54.2249C47.7787 53.9761 47.6914 53.761 47.5202 53.5795C47.3455 53.3946 47.1272 53.3038 46.8586 53.3038C46.5899 53.3038 46.3716 53.3946 46.2071 53.5795C46.0425 53.7644 45.9586 53.9795 45.9586 54.2249C45.9586 54.4871 46.0425 54.709 46.2138 54.8938C46.3817 55.0787 46.6033 55.1695 46.872 55.1695M46.8619 50.8096C46.3985 50.8096 45.9485 50.8835 45.522 51.0281C45.0854 51.176 44.6958 51.3978 44.3667 51.6903C44.0342 51.9827 43.7656 52.3458 43.5674 52.7693C43.3693 53.1963 43.2686 53.6837 43.2686 54.2182C43.2686 54.7526 43.3693 55.2502 43.5674 55.6804C43.7656 56.1073 44.0342 56.4738 44.3667 56.7696C44.6958 57.062 45.0854 57.2906 45.522 57.4419C45.9518 57.5898 46.4018 57.6671 46.8653 57.6671C47.3287 57.6671 47.7888 57.5898 48.2187 57.4419C48.6553 57.2906 49.0448 57.0654 49.3773 56.7696C49.7131 56.4738 49.9851 56.1073 50.1833 55.6804C50.3814 55.2502 50.4822 54.7594 50.4822 54.2182C50.4822 53.677 50.3814 53.1963 50.1833 52.7693C49.9851 52.3458 49.7131 51.9827 49.3773 51.6903C49.0448 51.4012 48.6553 51.1793 48.2187 51.0314C47.7922 50.8869 47.3354 50.8129 46.8686 50.8129L46.8619 50.8096ZM46.872 54.7426C46.7209 54.7426 46.6168 54.6989 46.5295 54.6047C46.4321 54.5005 46.3884 54.3795 46.3884 54.2249C46.3884 54.0837 46.4321 53.9694 46.5261 53.8652C46.6101 53.7711 46.7142 53.7307 46.8619 53.7307C47.0097 53.7307 47.1205 53.7744 47.2145 53.8719C47.3153 53.9761 47.359 54.0871 47.359 54.2249C47.359 54.3795 47.3153 54.5005 47.2179 54.6047C47.1306 54.6989 47.0231 54.7426 46.8754 54.7426H46.872Z" fill="white"/>
<path d="M54.7237 51.3003C55.1099 51.3003 55.4323 51.3709 55.6909 51.5121C55.9495 51.6533 56.151 51.8348 56.3021 52.06C56.4532 52.2819 56.5573 52.5307 56.6178 52.8063C56.6782 53.0819 56.7085 53.3576 56.7085 53.6332V57.0284H54.2603V54.0602C54.2603 53.7778 54.2166 53.5795 54.1293 53.4652C54.042 53.3509 53.9077 53.2937 53.733 53.2937C53.5718 53.2937 53.4375 53.361 53.3367 53.4887C53.2326 53.6198 53.1823 53.808 53.1823 54.0568V57.025H50.7341V51.4449H53.1185V52.06H53.1386C53.2796 51.855 53.4879 51.6768 53.7666 51.5256C54.0453 51.3743 54.3644 51.297 54.7237 51.297M54.7237 50.8701C54.2939 50.8701 53.9043 50.9642 53.5617 51.1491C53.5282 51.1659 53.4979 51.186 53.4677 51.2029C53.3905 51.0919 53.2629 51.018 53.1151 51.018H50.7307C50.4956 51.018 50.3042 51.2096 50.3042 51.4449V57.025C50.3042 57.2603 50.4956 57.4519 50.7307 57.4519H53.1789C53.414 57.4519 53.6054 57.2603 53.6054 57.025V54.0568C53.6054 53.8551 53.6491 53.7778 53.6692 53.7509C53.6927 53.7206 53.7028 53.7173 53.7297 53.7173C53.77 53.7173 53.7901 53.724 53.7935 53.724C53.7935 53.724 53.8338 53.808 53.8338 54.0534V57.0217C53.8338 57.257 54.0252 57.4486 54.2603 57.4486H56.7085C56.9435 57.4486 57.135 57.257 57.135 57.0217V53.6265C57.135 53.3206 57.1014 53.0114 57.0342 52.7088C56.9637 52.3794 56.8361 52.0802 56.6547 51.8113C56.4667 51.5323 56.2114 51.3037 55.8958 51.1323C55.5734 50.9575 55.1804 50.8667 54.7237 50.8667V50.8701Z" fill="white"/>
<path d="M58.831 48.5841C58.9989 48.5841 59.1601 48.6178 59.3078 48.685C59.4556 48.7522 59.5899 48.843 59.7041 48.9539C59.8217 49.0682 59.9123 49.1993 59.9795 49.3506C60.0467 49.5018 60.0802 49.6632 60.0802 49.8346C60.0802 50.0061 60.0467 50.1741 59.9795 50.3288C59.9123 50.48 59.8217 50.6111 59.7041 50.7221C59.5866 50.833 59.4556 50.917 59.3078 50.9809C59.1601 51.0448 58.9989 51.075 58.831 51.075C58.663 51.075 58.4884 51.0448 58.3339 50.9809C58.1794 50.917 58.0418 50.8296 57.9276 50.7221C57.81 50.6111 57.7194 50.48 57.6522 50.3288C57.585 50.1775 57.5514 50.0128 57.5514 49.8346C57.5514 49.6565 57.585 49.5052 57.6522 49.3506C57.7194 49.1993 57.81 49.0648 57.9276 48.9539C58.0451 48.8396 58.1794 48.7522 58.3339 48.685C58.4884 48.6178 58.6563 48.5841 58.831 48.5841ZM60.0399 51.4482V57.0283H57.5917V51.4482H60.0399ZM58.831 48.1572C58.5959 48.1572 58.3742 48.2043 58.166 48.2917C57.9645 48.3791 57.7832 48.5001 57.6287 48.648C57.4742 48.7993 57.3499 48.9774 57.2593 49.1791C57.1686 49.3842 57.1216 49.606 57.1216 49.8346C57.1216 50.0632 57.1686 50.2952 57.2593 50.5002C57.3466 50.6985 57.4675 50.8733 57.622 51.0213H57.5917C57.3567 51.0213 57.1652 51.2129 57.1652 51.4482V57.0283C57.1652 57.2636 57.3567 57.4552 57.5917 57.4552H60.0399C60.275 57.4552 60.4664 57.2636 60.4664 57.0283V51.4482C60.4664 51.2129 60.275 51.0213 60.0399 51.0213H60.0097C60.1642 50.8733 60.2851 50.6985 60.3724 50.5002C60.4631 50.2952 60.5101 50.0699 60.5101 49.8346C60.5101 49.5993 60.4631 49.3842 60.3724 49.1791C60.2851 48.9774 60.1608 48.7993 60.003 48.648C59.8519 48.5001 59.6772 48.3825 59.4858 48.2951C59.281 48.2043 59.0627 48.1572 58.8343 48.1572H58.831Z" fill="white"/>
<path d="M63.2471 51.2363C63.677 51.2363 64.1068 51.3002 64.53 51.4279C64.9531 51.5556 65.336 51.7304 65.6752 51.959L64.53 53.3272C64.352 53.2129 64.174 53.1255 63.9893 53.0616C63.8046 52.9977 63.6266 52.9675 63.4486 52.9675C63.3277 52.9675 63.2303 52.9843 63.1531 53.0145C63.0758 53.0448 63.0355 53.1087 63.0355 53.1994C63.0355 53.27 63.0792 53.3238 63.1665 53.3641C63.2538 53.4011 63.4553 53.4549 63.7744 53.5188C63.9927 53.5625 64.2042 53.6263 64.4124 53.7137C64.6207 53.8011 64.8054 53.9154 64.9733 54.0533C65.1378 54.1911 65.2722 54.3592 65.3696 54.5575C65.467 54.7558 65.5173 54.9878 65.5173 55.2567C65.5173 55.6332 65.4367 55.9458 65.2789 56.2013C65.121 56.4568 64.9195 56.6584 64.6778 56.8097C64.436 56.961 64.1707 57.0719 63.8818 57.1391C63.593 57.2064 63.3176 57.24 63.0591 57.24C62.5788 57.24 62.1087 57.1728 61.6452 57.0316C61.1818 56.8938 60.7821 56.6988 60.4429 56.4433L61.6419 55.055C61.8098 55.2096 62.0113 55.3374 62.2396 55.4315C62.468 55.5256 62.6896 55.576 62.9012 55.576C62.9852 55.576 63.0658 55.5592 63.1397 55.529C63.2135 55.4987 63.2505 55.4382 63.2505 55.3542C63.2505 55.2634 63.1867 55.1895 63.0557 55.1357C62.9247 55.0819 62.6964 55.018 62.3706 54.9407C62.1926 54.897 62.0146 54.8365 61.8299 54.7558C61.6452 54.6751 61.4773 54.5676 61.3262 54.4331C61.1751 54.2987 61.0474 54.1339 60.95 53.939C60.8527 53.744 60.8023 53.5121 60.8023 53.2431C60.8023 52.8834 60.8829 52.5742 61.0407 52.3221C61.1986 52.0666 61.4001 51.8615 61.6452 51.7002C61.8904 51.5422 62.1557 51.4245 62.4411 51.3506C62.7266 51.2766 62.9986 51.2397 63.2505 51.2397M63.2505 50.8127C62.9617 50.8127 62.6527 50.8531 62.3337 50.9371C62.0046 51.0212 61.6956 51.159 61.4135 51.3439C61.118 51.5388 60.8728 51.7909 60.6814 52.0968C60.4799 52.4196 60.3791 52.8061 60.3791 53.2465C60.3791 53.5826 60.4429 53.8818 60.5739 54.1339C60.6982 54.376 60.856 54.5844 61.0474 54.7525C61.1045 54.8029 61.1616 54.8499 61.2221 54.8936L60.1206 56.171C60.0433 56.2618 60.0064 56.3794 60.0198 56.4971C60.0332 56.6148 60.0937 56.7223 60.1877 56.7929C60.5672 57.0753 61.0172 57.2971 61.5243 57.4484C62.0247 57.5963 62.5419 57.6736 63.0591 57.6736C63.3512 57.6736 63.6602 57.6367 63.9792 57.5627C64.3117 57.4854 64.624 57.3576 64.9061 57.1795C65.2016 56.9946 65.4502 56.7425 65.6416 56.4332C65.8431 56.1105 65.9438 55.7172 65.9438 55.2634C65.9438 54.9306 65.88 54.6314 65.7524 54.3726C65.6281 54.1239 65.4569 53.9054 65.2487 53.7306C65.1513 53.6499 65.0505 53.5759 64.9397 53.5087L66.0043 52.2347C66.0815 52.1405 66.1151 52.0195 66.0983 51.8985C66.0815 51.7775 66.0144 51.6699 65.9136 51.6061C65.5408 51.3573 65.1177 51.1623 64.6542 51.0212C64.1942 50.8833 63.7206 50.8127 63.2505 50.8127Z" fill="white"/>
<path d="M67.4315 48.5841C67.5995 48.5841 67.7607 48.6178 67.9084 48.685C68.0562 48.7522 68.1905 48.843 68.3047 48.9539C68.4222 49.0682 68.5129 49.1993 68.5801 49.3506C68.6472 49.5018 68.6808 49.6632 68.6808 49.8346C68.6808 50.0061 68.6472 50.1741 68.5801 50.3288C68.5129 50.48 68.4222 50.6111 68.3047 50.7221C68.1872 50.833 68.0562 50.917 67.9084 50.9809C67.7607 51.0448 67.5995 51.075 67.4315 51.075C67.2636 51.075 67.089 51.0448 66.9345 50.9809C66.78 50.917 66.6423 50.8296 66.5282 50.7221C66.4106 50.6111 66.3199 50.48 66.2528 50.3288C66.1856 50.1775 66.152 50.0128 66.152 49.8346C66.152 49.6565 66.1856 49.5052 66.2528 49.3506C66.3199 49.1993 66.4106 49.0648 66.5282 48.9539C66.6457 48.8396 66.78 48.7522 66.9345 48.685C67.089 48.6178 67.2569 48.5841 67.4315 48.5841ZM68.6405 51.4482V57.0283H66.1923V51.4482H68.6405ZM67.4315 48.1572C67.1965 48.1572 66.9748 48.2043 66.7666 48.2917C66.5651 48.3791 66.3838 48.5001 66.2293 48.648C66.0748 48.7993 65.9505 48.9774 65.8599 49.1791C65.7692 49.3842 65.7222 49.606 65.7222 49.8346C65.7222 50.0632 65.7692 50.2952 65.8599 50.5002C65.9472 50.6985 66.0681 50.8733 66.2226 51.0213H66.1923C65.9573 51.0213 65.7658 51.2129 65.7658 51.4482V57.0283C65.7658 57.2636 65.9573 57.4552 66.1923 57.4552H68.6405C68.8756 57.4552 69.067 57.2636 69.067 57.0283V51.4482C69.067 51.2129 68.8756 51.0213 68.6405 51.0213H68.6103C68.7648 50.8733 68.8857 50.6985 68.973 50.5002C69.0637 50.2952 69.1107 50.0699 69.1107 49.8346C69.1107 49.5993 69.0637 49.3842 68.973 49.1791C68.8857 48.9774 68.7614 48.7993 68.6036 48.648C68.4525 48.5001 68.2778 48.3825 68.0864 48.2951C67.8816 48.2043 67.6633 48.1572 67.4349 48.1572H67.4315Z" fill="white"/>
<path d="M73.5534 51.3003C73.9396 51.3003 74.262 51.3709 74.5206 51.5121C74.7791 51.6533 74.9806 51.8348 75.1351 52.06C75.2862 52.2819 75.3904 52.5307 75.4508 52.8063C75.5112 53.0819 75.5415 53.3576 75.5415 53.6332V57.0284H73.0933V54.0602C73.0933 53.7778 73.0496 53.5795 72.9623 53.4652C72.875 53.3509 72.7407 53.2937 72.566 53.2937C72.4048 53.2937 72.2705 53.361 72.1697 53.4887C72.0656 53.6198 72.0153 53.808 72.0153 54.0568V57.025H69.5671V51.4449H71.9515V52.06H71.9716C72.1127 51.855 72.3209 51.6768 72.5996 51.5256C72.8783 51.3743 73.1974 51.297 73.5567 51.297M73.5567 50.8701C73.1269 50.8701 72.7373 50.9642 72.3948 51.1491C72.3612 51.1659 72.3309 51.186 72.3007 51.2029C72.2235 51.0919 72.0959 51.018 71.9481 51.018H69.5637C69.3286 51.018 69.1372 51.2096 69.1372 51.4449V57.025C69.1372 57.2603 69.3286 57.4519 69.5637 57.4519H72.0119C72.247 57.4519 72.4384 57.2603 72.4384 57.025V54.0568C72.4384 53.8551 72.4821 53.7778 72.5022 53.7509C72.5257 53.7206 72.5358 53.7173 72.5627 53.7173C72.603 53.7173 72.6231 53.724 72.6265 53.724C72.6265 53.724 72.6668 53.808 72.6668 54.0534V57.0217C72.6668 57.257 72.8582 57.4486 73.0933 57.4486H75.5415C75.7766 57.4486 75.968 57.257 75.968 57.0217V53.6265C75.968 53.3206 75.9344 53.0114 75.8672 52.7088C75.7967 52.3827 75.6691 52.0802 75.4877 51.8113C75.2997 51.5323 75.0444 51.3037 74.7288 51.1323C74.4064 50.9575 74.0135 50.8667 73.5567 50.8667V50.8701Z" fill="white"/>
<path d="M78.7287 51.3001C79.0242 51.3001 79.3164 51.3573 79.6019 51.4682C79.8873 51.5825 80.1224 51.7607 80.3071 52.0094H80.3373V51.4481H82.6378V56.4534C82.6378 57.0618 82.5404 57.566 82.3422 57.9694C82.1441 58.3728 81.8822 58.6922 81.553 58.9308C81.2239 59.1661 80.8512 59.3342 80.4347 59.4283C80.0183 59.5225 79.5952 59.5729 79.1619 59.5729C78.6313 59.5729 78.1041 59.5057 77.5735 59.3645C77.0429 59.2266 76.5794 59.0216 76.1865 58.756L77.2578 57.1324C77.5264 57.3375 77.8085 57.4887 78.1041 57.5829C78.3996 57.677 78.6817 57.7274 78.9504 57.7274C79.1284 57.7274 79.2963 57.7039 79.4541 57.6602C79.6119 57.6131 79.753 57.5459 79.8739 57.4585C79.9948 57.3711 80.0888 57.2601 80.1593 57.129C80.2299 56.9979 80.2668 56.8467 80.2668 56.6786V56.4332H80.2332C80.0989 56.5878 79.9008 56.7257 79.6355 56.8467C79.3702 56.9677 79.0679 57.0282 78.7287 57.0282C78.2989 57.0282 77.9227 56.9509 77.607 56.7996C77.288 56.6483 77.0227 56.4433 76.8111 56.1845C76.5996 55.9256 76.4417 55.6264 76.341 55.2869C76.2402 54.9474 76.1865 54.5911 76.1865 54.2146C76.1865 53.8381 76.2402 53.502 76.351 53.1557C76.4619 52.8095 76.6231 52.4969 76.8346 52.2212C77.0462 51.9456 77.3115 51.7237 77.6306 51.5523C77.9496 51.3842 78.3156 51.2968 78.7321 51.2968M79.3668 55.1592C79.6556 55.1592 79.8873 55.0684 80.062 54.8835C80.2366 54.6987 80.3205 54.4768 80.3205 54.2146C80.3205 53.9658 80.2332 53.7507 80.062 53.5692C79.8873 53.3843 79.659 53.2935 79.3668 53.2935C79.0746 53.2935 78.8429 53.3843 78.6884 53.5692C78.5339 53.7541 78.4567 53.9692 78.4567 54.2146C78.4567 54.4835 78.5339 54.7087 78.6884 54.8869C78.8429 55.0684 79.0713 55.1558 79.3668 55.1558M78.7321 50.8699C78.2485 50.8699 77.8085 50.9741 77.4291 51.1758C77.0596 51.3741 76.744 51.6363 76.4988 51.959C76.257 52.2716 76.0723 52.6313 75.948 53.0246C75.8271 53.4112 75.7633 53.8112 75.7633 54.2146C75.7633 54.618 75.8204 55.0315 75.9346 55.4079C76.0522 55.7979 76.2369 56.1508 76.4854 56.45C76.613 56.6046 76.7574 56.7458 76.9186 56.8702C76.9119 56.8769 76.9085 56.8837 76.9018 56.8937L75.8305 58.5174C75.7029 58.7123 75.7533 58.9745 75.948 59.1056C76.3813 59.4014 76.8951 59.6267 77.4694 59.7746C78.0302 59.9225 78.6011 59.9964 79.1653 59.9964C79.6254 59.9964 80.0855 59.946 80.5321 59.8418C81.0023 59.7342 81.4321 59.5426 81.8049 59.2737C82.1878 58.9981 82.5001 58.6216 82.7284 58.1543C82.9534 57.6938 83.0676 57.1223 83.0676 56.45V51.4447C83.0676 51.2094 82.8762 51.0178 82.6411 51.0178H80.3407C80.203 51.0178 80.0821 51.0816 80.0049 51.1825C79.9276 51.1388 79.847 51.1018 79.7631 51.0682C79.4272 50.9371 79.0813 50.8699 78.7321 50.8699ZM79.3668 54.7323C79.1418 54.7323 79.0578 54.6617 79.0108 54.6113C78.9235 54.5071 78.8798 54.3827 78.8798 54.2146C78.8798 54.0667 78.9235 53.949 79.0108 53.8415C79.0545 53.7877 79.1418 53.7171 79.3634 53.7171C79.5851 53.7171 79.6892 53.7978 79.7463 53.8583C79.8437 53.9625 79.8907 54.0734 79.8907 54.2112C79.8907 54.3625 79.8437 54.4835 79.7463 54.5877C79.6892 54.6482 79.5851 54.7289 79.3634 54.7289L79.3668 54.7323Z" fill="white"/>
<path d="M86.1772 51.4482H88.5281V52.0835H88.5482C88.6691 51.8583 88.8471 51.6701 89.0822 51.5222C89.3206 51.3742 89.596 51.3003 89.915 51.3003C90.1065 51.3003 90.2609 51.3171 90.3818 51.3541L90.1904 53.4315C90.1132 53.4113 90.0259 53.3945 89.9318 53.3844C89.8378 53.3744 89.7505 53.3676 89.6732 53.3676C89.3542 53.3676 89.099 53.4584 88.9109 53.6433C88.7195 53.8282 88.6254 54.0534 88.6254 54.3223V57.025H86.1772V51.4448V51.4482Z" fill="white"/>
<path d="M96.3057 54.2889C96.3057 54.3797 96.3057 54.4738 96.299 54.5713C96.2956 54.6654 96.2889 54.7461 96.2822 54.8099H92.531C92.5377 54.9074 92.5712 54.9982 92.6317 55.0755C92.6921 55.1528 92.766 55.22 92.8533 55.2772C92.9407 55.3343 93.0414 55.3747 93.1489 55.4049C93.2563 55.4352 93.3705 55.4486 93.4813 55.4486C93.7064 55.4486 93.8944 55.4083 94.0489 55.3276C94.2034 55.2469 94.3142 55.1562 94.3948 55.0587L96.131 55.9394C95.8825 56.3428 95.5265 56.6621 95.0564 56.8941C94.5862 57.126 94.0388 57.2437 93.4175 57.2437C93.0146 57.2437 92.6216 57.1798 92.2421 57.0521C91.8593 56.9243 91.5235 56.7361 91.2313 56.484C90.9391 56.2319 90.704 55.9192 90.5261 55.5461C90.3481 55.173 90.2607 54.736 90.2607 54.2418C90.2607 53.7813 90.3413 53.3678 90.5059 52.9947C90.6671 52.6249 90.8887 52.309 91.1675 52.0501C91.4462 51.7913 91.7753 51.593 92.1548 51.4518C92.531 51.3106 92.9373 51.24 93.3672 51.24C93.797 51.24 94.2034 51.3173 94.5661 51.4686C94.9254 51.6198 95.2344 51.8316 95.493 52.1039C95.7516 52.3762 95.9497 52.6989 96.0907 53.0754C96.2318 53.4519 96.3023 53.8586 96.3023 54.2956L96.3057 54.2889ZM94.1967 53.4922C94.1967 53.2939 94.1261 53.1325 93.9784 53.0048C93.834 52.8771 93.6358 52.8132 93.3907 52.8132C93.122 52.8132 92.9138 52.8871 92.766 53.0351C92.6183 53.183 92.5343 53.3342 92.5108 53.4922H94.1967Z" fill="white"/>
<path d="M99.8424 53.4854C99.8424 53.3174 99.7853 53.1896 99.6677 53.1089C99.5502 53.0283 99.3991 52.9879 99.2077 52.9879C98.9827 52.9879 98.7677 53.035 98.5662 53.1325C98.3647 53.23 98.1867 53.3409 98.0323 53.4653L96.8132 52.2551C97.1524 51.929 97.5554 51.6803 98.0222 51.5021C98.489 51.324 98.9692 51.2366 99.4629 51.2366C99.9935 51.2366 100.43 51.3105 100.776 51.4584C101.122 51.6063 101.397 51.8114 101.599 52.0736C101.8 52.3358 101.941 52.6383 102.022 52.9846C102.103 53.3308 102.143 53.6972 102.143 54.0872V57.0251H99.9297V56.578H99.9095C99.7685 56.7898 99.567 56.9411 99.3051 57.0352C99.0431 57.126 98.7879 57.173 98.5427 57.173C98.3244 57.173 98.0994 57.1428 97.8711 57.0789C97.6427 57.015 97.4345 56.9142 97.2464 56.7697C97.0584 56.6251 96.9039 56.4436 96.7863 56.2184C96.6688 55.9931 96.605 55.7141 96.605 55.3813C96.605 54.9914 96.7057 54.6754 96.9072 54.4334C97.1087 54.1914 97.364 53.9998 97.6763 53.8619C97.9886 53.7241 98.3345 53.63 98.7207 53.5796C99.1069 53.5291 99.483 53.5056 99.8491 53.5056V53.4854H99.8424ZM99.8625 54.7158C99.5032 54.7158 99.211 54.7561 98.9927 54.8334C98.7744 54.9107 98.6636 55.0553 98.6636 55.2671C98.6636 55.3444 98.6804 55.4116 98.7173 55.462C98.7543 55.5158 98.7979 55.5595 98.855 55.5931C98.9121 55.6301 98.9726 55.6536 99.0397 55.6738C99.1069 55.694 99.1674 55.7007 99.2244 55.7007C99.4562 55.7007 99.6442 55.6267 99.7853 55.4788C99.9263 55.3309 99.9969 55.1393 99.9969 54.9074V54.7158H99.8592H99.8625Z" fill="white"/>
<path d="M102.938 49.0078H105.44V57.0251H102.938V49.0078Z" fill="white"/>
<path d="M114.602 54.2889C114.602 54.3797 114.602 54.4738 114.595 54.5713C114.592 54.6654 114.585 54.7461 114.579 54.8099H110.827C110.834 54.9074 110.868 54.9982 110.928 55.0755C110.989 55.1528 111.062 55.22 111.15 55.2772C111.237 55.3343 111.338 55.3747 111.445 55.4049C111.553 55.4352 111.667 55.4486 111.778 55.4486C112.003 55.4486 112.191 55.4083 112.345 55.3276C112.5 55.2469 112.611 55.1562 112.691 55.0587L114.427 55.9394C114.179 56.3428 113.823 56.6621 113.353 56.8941C112.883 57.126 112.335 57.2437 111.714 57.2437C111.311 57.2437 110.918 57.1798 110.539 57.0521C110.156 56.9243 109.82 56.7361 109.528 56.484C109.236 56.2319 109 55.9192 108.822 55.5461C108.644 55.173 108.557 54.736 108.557 54.2418C108.557 53.7813 108.638 53.3678 108.802 52.9947C108.963 52.6249 109.185 52.309 109.464 52.0501C109.743 51.7913 110.072 51.593 110.451 51.4518C110.827 51.3106 111.234 51.24 111.664 51.24C112.093 51.24 112.5 51.3173 112.862 51.4686C113.222 51.6198 113.531 51.8316 113.789 52.1039C114.048 52.3762 114.246 52.6989 114.387 53.0754C114.528 53.4519 114.599 53.8586 114.599 54.2956L114.602 54.2889ZM112.493 53.4922C112.493 53.2939 112.423 53.1325 112.275 53.0048C112.13 52.8771 111.932 52.8132 111.687 52.8132C111.418 52.8132 111.21 52.8871 111.062 53.0351C110.915 53.183 110.831 53.3342 110.807 53.4922H112.493Z" fill="white"/>
<path d="M119.804 55.257C119.804 55.6335 119.723 55.9461 119.565 56.2016C119.408 56.4571 119.206 56.6588 118.964 56.8101C118.722 56.9613 118.457 57.0723 118.168 57.1395C117.88 57.2067 117.604 57.2403 117.346 57.2403C116.865 57.2403 116.395 57.1697 115.932 57.0319C115.468 56.8941 115.069 56.6991 114.729 56.4436L115.928 55.0553C116.096 55.21 116.298 55.3377 116.526 55.4318C116.755 55.5259 116.976 55.5764 117.188 55.5764C117.272 55.5764 117.352 55.5596 117.426 55.5293C117.5 55.4991 117.537 55.4385 117.537 55.3545C117.537 55.2637 117.47 55.1898 117.342 55.136C117.211 55.0822 116.983 55.0184 116.657 54.941C116.479 54.8973 116.301 54.8368 116.116 54.7562C115.932 54.6755 115.767 54.5679 115.613 54.4334C115.458 54.299 115.334 54.1343 115.237 53.9393C115.139 53.7443 115.089 53.5124 115.089 53.2435C115.089 52.8838 115.169 52.5745 115.327 52.3224C115.485 52.0669 115.687 51.8619 115.932 51.7005C116.174 51.5425 116.439 51.4249 116.728 51.3509C117.013 51.277 117.285 51.24 117.537 51.24C117.967 51.24 118.393 51.3039 118.82 51.4316C119.243 51.5593 119.626 51.7341 119.965 51.9627L118.82 53.3309C118.642 53.2166 118.464 53.1292 118.279 53.0653C118.095 53.0014 117.917 52.9712 117.739 52.9712C117.618 52.9712 117.52 52.988 117.443 53.0182C117.366 53.0485 117.325 53.1124 117.325 53.2031C117.325 53.2737 117.369 53.3275 117.456 53.3678C117.544 53.4082 117.745 53.4586 118.064 53.5225C118.283 53.5662 118.494 53.63 118.702 53.7174C118.911 53.8048 119.095 53.9191 119.263 54.057C119.428 54.1948 119.559 54.3629 119.659 54.5612C119.757 54.7595 119.807 54.9915 119.807 55.2604L119.804 55.257Z" fill="white"/>
<path d="M122.9 57.1763C122.151 57.1763 121.597 57.0149 121.234 56.6922C120.875 56.3695 120.694 55.872 120.694 55.193V53.1996H119.908V51.4482H120.68V50.1978H123.054V51.4482H124.263V53.1996H123.054V54.6854C123.054 54.9543 123.112 55.1358 123.229 55.23C123.347 55.3241 123.508 55.3745 123.713 55.3745C123.79 55.3745 123.871 55.3678 123.958 55.3543C124.042 55.3409 124.109 55.3274 124.159 55.3106V56.988C124.032 57.0452 123.854 57.0889 123.625 57.1259C123.397 57.1595 123.155 57.1797 122.9 57.1797V57.1763Z" fill="white"/>
<path d="M127.676 53.4854C127.676 53.3174 127.619 53.1896 127.501 53.1089C127.384 53.0283 127.233 52.9879 127.041 52.9879C126.816 52.9879 126.601 53.035 126.4 53.1325C126.198 53.23 126.02 53.3409 125.866 53.4653L124.647 52.2551C124.986 51.929 125.389 51.6803 125.856 51.5021C126.322 51.324 126.803 51.2366 127.296 51.2366C127.827 51.2366 128.264 51.3105 128.609 51.4584C128.955 51.6063 129.231 51.8114 129.432 52.0736C129.634 52.3358 129.775 52.6383 129.855 52.9846C129.936 53.3308 129.976 53.6972 129.976 54.0872V57.0251H127.76V56.578H127.74C127.599 56.7898 127.397 56.9411 127.135 57.0352C126.873 57.126 126.618 57.173 126.373 57.173C126.155 57.173 125.929 57.1428 125.701 57.0789C125.473 57.015 125.265 56.9142 125.076 56.7697C124.888 56.6285 124.734 56.4436 124.616 56.2184C124.499 55.9931 124.435 55.7141 124.435 55.3813C124.435 54.9914 124.536 54.6754 124.737 54.4334C124.939 54.1914 125.194 53.9998 125.506 53.8619C125.819 53.7241 126.165 53.63 126.551 53.5796C126.937 53.5291 127.313 53.5056 127.679 53.5056V53.4854H127.676ZM127.696 54.7158C127.337 54.7158 127.044 54.7561 126.826 54.8334C126.608 54.9107 126.497 55.0553 126.497 55.2671C126.497 55.3444 126.514 55.4116 126.551 55.462C126.588 55.5158 126.631 55.5595 126.688 55.5931C126.746 55.6267 126.806 55.6536 126.873 55.6738C126.94 55.6906 127.001 55.7007 127.058 55.7007C127.293 55.7007 127.478 55.6267 127.619 55.4788C127.76 55.3309 127.83 55.1393 127.83 54.9074V54.7158H127.693H127.696Z" fill="white"/>
<path d="M133.092 57.1763C132.344 57.1763 131.789 57.0149 131.43 56.6922C131.071 56.3695 130.889 55.872 130.889 55.193V53.1996H130.107V51.4482H130.879V50.1978H133.254V51.4482H134.463V53.1996H133.254V54.6854C133.254 54.9543 133.311 55.1358 133.428 55.23C133.546 55.3241 133.704 55.3745 133.912 55.3745C133.989 55.3745 134.07 55.3678 134.154 55.3543C134.238 55.3409 134.305 55.3274 134.355 55.3106V56.988C134.228 57.0452 134.05 57.0889 133.821 57.1259C133.589 57.1595 133.351 57.1797 133.096 57.1797L133.092 57.1763Z" fill="white"/>
<path d="M140.729 54.2889C140.729 54.3797 140.73 54.4738 140.723 54.5713C140.716 54.6688 140.713 54.7461 140.706 54.8099H136.955C136.961 54.9074 136.995 54.9982 137.056 55.0755C137.116 55.1528 137.19 55.22 137.277 55.2772C137.364 55.3343 137.465 55.3747 137.573 55.4049C137.68 55.4318 137.794 55.4486 137.905 55.4486C138.13 55.4486 138.322 55.4083 138.473 55.3276C138.624 55.2469 138.738 55.1562 138.819 55.0587L140.555 55.9394C140.306 56.3428 139.95 56.6621 139.48 56.8941C139.01 57.126 138.466 57.2437 137.841 57.2437C137.438 57.2437 137.045 57.1798 136.666 57.0521C136.286 56.9243 135.947 56.7361 135.655 56.484C135.363 56.2319 135.128 55.9192 134.95 55.5461C134.772 55.173 134.685 54.736 134.685 54.2418C134.685 53.7813 134.765 53.3678 134.926 52.9947C135.088 52.6216 135.309 52.309 135.588 52.0501C135.867 51.7913 136.196 51.593 136.572 51.4518C136.948 51.3106 137.354 51.24 137.784 51.24C138.214 51.24 138.62 51.3173 138.98 51.4686C139.339 51.6198 139.648 51.8316 139.907 52.1039C140.165 52.3762 140.363 52.6989 140.504 53.0754C140.646 53.4519 140.716 53.8586 140.716 54.2956L140.729 54.2889ZM138.62 53.4922C138.62 53.2939 138.547 53.1325 138.402 53.0048C138.258 52.8771 138.063 52.8132 137.815 52.8132C137.546 52.8132 137.338 52.8871 137.19 53.0351C137.042 53.183 136.958 53.3342 136.935 53.4922H138.62Z" fill="white"/>
</g>
<defs>
<clipPath id="clip0_1284_16513">
<rect width="148" height="60" fill="white"/>
</clipPath>
</defs>
</svg>
