<svg width="25" height="18" viewBox="0 0 25 18" fill="none" xmlns="http://www.w3.org/2000/svg">
<path d="M21.792 0H3.79199C2.15137 0 0.791992 1.35938 0.791992 3V15C0.791992 16.6406 2.15137 18 3.79199 18H21.792C23.4326 18 24.792 16.6406 24.792 15V3C24.792 1.35938 23.4326 0 21.792 0ZM3.79199 2.25H21.792C22.2139 2.25 22.542 2.57812 22.542 3V4.03125L14.7139 10.5469C13.6357 11.4375 11.9482 11.4375 10.8701 10.5469L3.04199 4.03125V3C3.04199 2.57812 3.37012 2.25 3.79199 2.25ZM21.792 15.75H3.79199C3.37012 15.75 3.04199 15.4219 3.04199 15V6.98438L9.41699 12.2812C10.3545 13.0781 11.5732 13.5 12.792 13.5C14.0107 13.5 15.2295 13.0781 16.167 12.2812L22.542 6.98438V15C22.542 15.4219 22.2139 15.75 21.792 15.75Z" fill="white"/>
</svg>
