<svg width="22" height="18" viewBox="0 0 22 18" fill="none" xmlns="http://www.w3.org/2000/svg">
<path d="M20.167 15.375C20.7764 15.375 21.292 15.8906 21.292 16.5469C21.292 17.1562 20.7764 17.625 20.167 17.625H1.37012C0.760742 17.625 0.291992 17.1562 0.291992 16.5C0.291992 15.8906 0.760742 15.375 1.37012 15.375H20.167ZM20.167 0.375C20.7764 0.375 21.292 0.984375 21.292 1.54688C21.292 2.15625 20.7764 2.625 20.167 2.625H1.37012C0.760742 2.625 0.291992 2.0625 0.291992 1.5C0.291992 0.890625 0.760742 0.375 1.37012 0.375H20.167ZM20.167 7.875C20.7764 7.875 21.292 8.39062 21.292 9C21.292 9.65625 20.7764 10.125 20.167 10.125H1.37012C0.760742 10.125 0.291992 9.65625 0.291992 9C0.291992 8.39062 0.760742 7.875 1.37012 7.875H20.167Z" fill="white"/>
</svg>
