<svg width="19" height="12" viewBox="0 0 19 12" fill="none" xmlns="http://www.w3.org/2000/svg">
<path d="M11.7773 11.6289C11.6016 11.4883 11.5312 11.2773 11.5312 11.0312C11.5312 10.8203 11.6016 10.6094 11.7773 10.4688L15.1172 7.09375H0.84375C0.351562 7.09375 0 6.74219 0 6.25C0 5.79297 0.351562 5.40625 0.84375 5.40625H15.1172L11.7773 2.06641C11.4258 1.75 11.4258 1.22266 11.7773 0.90625C12.0938 0.554688 12.6211 0.554688 12.9727 0.90625L17.7539 5.6875C18.0703 6.00391 18.0703 6.53125 17.7539 6.84766L12.9727 11.6289C12.6211 11.9805 12.0938 11.9805 11.7773 11.6289Z" fill="white"/>
</svg>
