<svg width="25" height="24" viewBox="0 0 25 24" fill="none" xmlns="http://www.w3.org/2000/svg">
<path d="M24.4639 22.0781L18.1826 15.7969C19.4951 14.1562 20.292 12.0469 20.292 9.75C20.292 4.35938 15.9326 0 10.542 0C5.15137 0 0.791992 4.35938 0.791992 9.75C0.791992 15.1406 5.15137 19.5 10.542 19.5C12.8389 19.5 14.9482 18.7031 16.5889 17.3906L22.8701 23.6719C23.1045 23.9062 23.3857 24 23.667 24C23.9482 24 24.2295 23.9062 24.4639 23.6719C24.8857 23.25 24.8857 22.5 24.4639 22.0781ZM3.04199 9.75C3.04199 5.625 6.41699 2.25 10.542 2.25C14.667 2.25 18.042 5.625 18.042 9.75C18.042 13.875 14.667 17.25 10.542 17.25C6.41699 17.25 3.04199 13.875 3.04199 9.75Z" fill="white"/>
</svg>
